<?xml version="1.0" encoding="UTF-8"?>
<svg preserveAspectRatio="xMidYMid" version="1.1" viewBox="0 0 256 228" xmlns="http://www.w3.org/2000/svg">
<path d="m210.48 73.824c-2.6557-0.91409-5.4075-1.779-8.2409-2.5969 0.4657-1.9006 0.89313-3.7766 1.2732-5.6208 6.2382-30.281 2.1595-54.676-11.768-62.707-13.355-7.7014-35.196 0.32854-57.254 19.525-2.1212 1.8459-4.2483 3.8003-6.3745 5.8486-1.4167-1.3552-2.8311-2.6648-4.2419-3.9175-23.118-20.526-46.29-29.177-60.204-21.122-13.342 7.7237-17.293 30.657-11.678 59.355 0.54226 2.7719 1.1761 5.6025 1.8929 8.4806-3.2795 0.93095-6.4455 1.9234-9.4749 2.9792-27.103 9.4494-44.413 24.259-44.413 39.62 0 15.865 18.582 31.778 46.812 41.427 2.2278 0.76144 4.5394 1.4814 6.9217 2.1649-0.77328 3.1127-1.4459 6.163-2.0104 9.1381-5.3542 28.2-1.1729 50.591 12.134 58.266 13.745 7.926 36.812-0.221 59.273-19.855 1.7753-1.552 3.557-3.1979 5.3419-4.9231 2.3135 2.2278 4.6233 4.3362 6.9208 6.3139 21.757 18.722 43.245 26.283 56.539 18.586 13.731-7.9488 18.193-32.003 12.4-61.268-0.44246-2.2351-0.95738-4.5185-1.5356-6.8424 1.6199-0.47892 3.2102-0.97333 4.7609-1.4873 29.348-9.7237 48.443-25.443 48.443-41.52 0-15.417-17.868-30.326-45.517-39.844zm-6.3653 70.984c-1.3998 0.46342-2.8361 0.91135-4.2998 1.3456-3.2399-10.257-7.6125-21.163-12.964-32.432 5.1063-11 9.3099-21.767 12.459-31.958 2.6188 0.75779 5.1605 1.557 7.6098 2.4005 23.69 8.1552 38.14 20.213 38.14 29.504 0 9.8964-15.606 22.743-40.946 31.14zm-10.514 20.834c2.5618 12.941 2.9277 24.641 1.2308 33.787-1.5247 8.2186-4.5909 13.698-8.3822 15.893-8.0678 4.6698-25.321-1.4003-43.927-17.412-2.133-1.8355-4.2815-3.7953-6.4369-5.8696 7.2134-7.8891 14.423-17.061 21.459-27.246 12.376-1.0982 24.068-2.8935 34.671-5.3446 0.5222 2.1066 0.98608 4.1726 1.3857 6.1926zm-106.33 48.873c-7.8823 2.7837-14.16 2.8635-17.955 0.67531-8.075-4.6575-11.432-22.636-6.8529-46.752 0.52448-2.7619 1.1488-5.5989 1.8683-8.4988 10.487 2.3189 22.093 3.9876 34.499 4.9933 7.0835 9.967 14.501 19.128 21.976 27.15-1.6331 1.5766-3.2599 3.0776-4.8776 4.4921-9.9324 8.682-19.886 14.842-28.657 17.94zm-36.928-69.768c-12.483-4.2665-22.792-9.8116-29.858-15.863-6.3494-5.4376-9.5551-10.836-9.5551-15.216 0-9.3218 13.898-21.212 37.077-29.293 2.8124-0.98062 5.7566-1.9047 8.8119-2.7728 3.2034 10.42 7.4057 21.315 12.477 32.332-5.1368 11.18-9.3988 22.249-12.634 32.791-2.1781-0.6261-4.2884-1.285-6.3189-1.9785zm12.378-84.259c-4.811-24.587-1.6158-43.135 6.4246-47.79 8.5644-4.9582 27.503 2.1111 47.463 19.835 1.2759 1.1328 2.5568 2.3185 3.8414 3.5452-7.438 7.9866-14.788 17.079-21.808 26.987-12.04 1.116-23.565 2.9086-34.161 5.3091-0.6662-2.6798-1.2563-5.3127-1.7598-7.8868zm110.43 27.267c-2.5331-4.3754-5.1337-8.6474-7.7848-12.803 8.168 1.0326 15.994 2.4032 23.343 4.0806-2.2064 7.0712-4.9564 14.465-8.1935 22.044-2.3221-4.4087-4.7782-8.8538-7.3646-13.322zm-45.032-43.861c5.0443 5.4649 10.096 11.566 15.065 18.187-5.007-0.2365-10.076-0.35953-15.187-0.35953-5.0626 0-10.094 0.1203-15.07 0.35269 4.9737-6.5586 10.069-12.652 15.192-18.18zm-45.32 43.937c-2.5304 4.3877-4.9409 8.8087-7.2266 13.238-3.1847-7.5528-5.9092-14.98-8.1347-22.151 7.304-1.6345 15.093-2.971 23.209-3.984-2.6885 4.1936-5.3105 8.497-7.8477 12.897v9.113e-4zm8.0814 65.352c-8.3854-0.9355-16.291-2.2032-23.594-3.7926 2.2611-7.2995 5.0457-14.885 8.2979-22.601 2.2916 4.426 4.7117 8.8488 7.2576 13.246h4.556e-4c2.5933 4.4798 5.2799 8.8679 8.0377 13.147zm37.541 31.03c-5.1833-5.5925-10.353-11.779-15.403-18.433 4.9017 0.1923 9.8991 0.29072 14.978 0.29072 5.218 0 10.376-0.11756 15.453-0.34358-4.9851 6.7741-10.019 12.97-15.029 18.486zm52.198-57.817c3.4217 7.7989 6.3061 15.345 8.5963 22.52-7.4225 1.6933-15.436 3.0571-23.88 4.0706 2.6575-4.2114 5.2808-8.5567 7.8586-13.026 2.6078-4.5221 5.084-9.0511 7.4252-13.564zm-16.898 8.1006c-4.0018 6.9386-8.1101 13.562-12.281 19.815-7.5966 0.54316-15.445 0.82295-23.444 0.82295-7.9666 0-15.716-0.24743-23.178-0.73182-4.339-6.3344-8.5366-12.978-12.513-19.846h9.114e-4c-3.9658-6.8497-7.6157-13.757-10.923-20.626 3.3064-6.8848 6.9468-13.8 10.89-20.638l-9.113e-4 0.001367c3.9534-6.8557 8.1142-13.467 12.413-19.761 7.6134-0.57552 15.421-0.87581 23.311-0.87581h4.56e-4c7.9256 0 15.743 0.30257 23.354 0.8831 4.2332 6.2487 8.3658 12.838 12.335 19.695 4.0141 6.9336 7.7014 13.803 11.036 20.54-3.3246 6.8529-7.0037 13.792-11 20.722zm22.56-122.12c8.5726 4.9436 11.906 24.881 6.5203 51.026-0.34358 1.6682-0.73045 3.3674-1.1506 5.0895-10.621-2.4506-22.154-4.2742-34.229-5.4071-7.0343-10.017-14.324-19.124-21.641-27.008 1.9672-1.8924 3.9316-3.6969 5.8878-5.3998 18.9-16.448 36.564-22.941 44.612-18.3zm-58.285 78.435c12.625 0 22.86 10.234 22.86 22.86 0 12.625-10.235 22.86-22.86 22.86-12.625 0-22.86-10.235-22.86-22.86 0-12.625 10.235-22.86 22.86-22.86z" fill="#00D8FF"/>
</svg>
