<?xml version="1.0" encoding="UTF-8"?>
<svg preserveAspectRatio="xMidYMid" version="1.1" viewBox="0 0 256 251" xmlns="http://www.w3.org/2000/svg">
<g fill="#DF4F4F">
<path d="m0.4386 0.43824 218.86 231.83s7.4562 5.2588 13.158-0.87648c5.7018-6.1353 1.3158-12.271 1.3158-12.271l-233.34-218.68z"/>
<path d="m69.738 22.35 166.67 179.68s7.4562 5.2588 13.158-0.87648c5.7018-6.1353 1.3158-12.271 1.3158-12.271l-181.14-166.53z"/>
<path d="m21.053 69.242 166.67 179.68s7.4562 5.2588 13.158-0.87647c5.7018-6.1353 1.3158-12.271 1.3158-12.271l-181.14-166.53z"/>
<path d="m128.32 41.194 116.44 125.53s5.2092 3.674 9.1927-0.61234c3.9835-4.2864 0.91927-8.5728 0.91927-8.5728l-126.55-116.34z"/>
<path d="m37.092 123.58 116.44 125.53s5.2092 3.674 9.1927-0.61234c3.9835-4.2864 0.91927-8.5728 0.91927-8.5728l-126.55-116.34z"/>
<path d="m188.16 68.365 52.775 57.067s2.5768 1.7216 4.5473-0.28693c1.9705-2.0085 0.45473-4.017 0.45473-4.017l-57.777-52.763z"/>
<path d="m66.229 181.43 52.775 57.067s2.5768 1.7216 4.5473-0.28693c1.9705-2.0085 0.45473-4.017 0.45473-4.017l-57.777-52.763z"/>
</g>
</svg>
