<?xml version="1.0" encoding="UTF-8"?>
<svg width="256px" height="245px" preserveAspectRatio="xMidYMid" version="1.1" viewBox=".1 31.4 256 244.5" xmlns="http://www.w3.org/2000/svg" xmlns:xlink="http://www.w3.org/1999/xlink">
<path d="m57.9 219.3 0.6-1.5 0.1-0.2c0.5-1.2 1-2.5 1.5-3.7 0.6-1.6 1.2-3.3 1.8-4.9 0.4-0.9 0.7-1.8 1-2.8 0.8-2.2 1.9-5.1 3.2-7.9 0.8-1.7 1.4-2.9 2.1-4 0.8-1.3 1.6-2.5 2.5-3.7l0.7-1 1.1-0.7c0.1-0.1 0.3-0.2 0.5-0.3 0.5-0.3 1.1-0.5 1.5-0.7 0.7-0.3 1.6-0.6 2.6-0.9 1.4-0.4 3-0.8 4.9-1.2 2.8-0.6 5.8-1.2 9.6-1.8 5.7-0.9 11.8-1.7 19.1-2.5 12.9-1.4 25.8-2.4 38.2-3 6.6-0.3 11.6-0.4 16.3-0.4h3c3.1 0.1 6.7 0.2 10 0.7 1.2 0.2 2.3 0.4 3.1 0.7 0.3 0.1 0.6 0.2 0.7 0.3l1 0.4 0.8 0.7 0.9 0.9c1.1 1.1 2.3 2.4 3.5 3.9 3.8 4.8 7.2 10.6 10.2 17.2 2.9 6.4 4.7 12.1 5.8 17.7l1.5 7.9h-18.4l-1.1-5.3c-1.2-5.6-16.3-20.4-23.8-23.3-0.8-0.3-4-1.2-13.9-1.2-20.4 0-49.2 3.6-53.3 4.5-4.9 2.3-12.4 11.9-16.7 21.5l-1.8 3.9" fill="#fff"/>
<path d="m182.9 190.1c-0.9-1.2-1.9-2.3-3-3.3l-0.7-0.7s-0.1 0-0.2-0.1c-0.5-0.2-1.2-0.3-1.9-0.4-2.9-0.4-6-0.5-9.1-0.6-6.3-0.1-12.6 0.1-18.9 0.4-12.6 0.6-25.3 1.6-37.8 3-6.3 0.7-12.6 1.5-18.8 2.5-3.1 0.5-6.2 1-9.2 1.7-1.5 0.3-3 0.7-4.4 1.1-0.7 0.2-1.4 0.4-2 0.7-0.3 0.1-0.6 0.2-0.7 0.4 0 0-0.1 0-0.1 0.1-0.7 1-1.4 2-2.1 3.1s-1.2 2.3-1.8 3.5c-1.1 2.4-2.1 4.9-3 7.4s-1.9 5.1-2.8 7.7c-0.5 1.3-1 2.6-1.6 3.9-0.2 0.6-0.5 1.2-0.8 1.8h8.5c4.6-10.3 13.3-22.1 20.5-25 2-0.8 34.2-4.8 55.5-4.8 7.9 0 13.3 0.6 16.3 1.7 8.7 3.4 26.1 19.5 27.9 28.2h4.9c-1-5.5-3-10.9-5.3-16.1-2.6-6-5.7-11.5-9.4-16.2" fill="#BA8449"/>
<path d="m179.1 185.9z" fill="#fff"/>
<path d="m179.1 185.9z" fill="#BA8449"/>
<path d="m192.1 228.6-1-5.4c-0.9-4.5-2.4-9.3-4.8-14.6-2.6-5.6-5.4-10.5-8.6-14.4-0.6-0.8-1.2-1.5-1.8-2.1-2.5-0.4-5.4-0.4-8-0.5h-2.8c-4.5 0-9.3 0.1-15.7 0.4-12.2 0.6-24.7 1.6-37.4 3-7.1 0.8-13 1.6-18.4 2.4-3.5 0.5-6.3 1.1-8.8 1.6-1.6 0.4-2.8 0.7-3.9 1-0.2 0-0.3 0.1-0.4 0.1-0.2 0.4-0.5 0.7-0.7 1.1-0.5 0.8-0.9 1.7-1.6 2.9-1.1 2.3-2 4.7-2.8 6.8-0.4 0.9-0.7 1.8-1 2.7-0.6 1.7-1.2 3.4-1.9 5.1-0.5 1.3-1.1 2.6-1.6 4l-0.1 0.2c-0.2 0.6-0.5 1.2-0.7 1.7l-1.8 4h-11.7l-1.7-0.8-0.2-0.1c-4-2.3-4-5.7-3.9-7.1v-0.3l0.2-0.9 0.3-1.1c0.2-0.7 0.4-1.5 0.6-2.2 0.4-1.5 0.9-2.9 1.4-4.3 0.9-2.6 2-5.4 3.3-8.4 1.4-3.1 2.7-5.8 4.2-8.3 0.7-1.3 1.5-2.6 2.5-4.1 0.9-1.4 1.9-2.8 2.9-4.1 0.9-1.1 1.7-1.8 2.3-2.2h0.1c0.6-0.5 1.2-0.8 1.5-0.9 0.9-0.5 1.6-0.8 2.1-1 1.2-0.5 2.3-0.8 3.2-1.1 2-0.6 3.9-1 5.3-1.3 2.9-0.6 6-1.2 9.9-1.8 5.8-0.9 11.9-1.6 19.4-2.4 13-1.3 26-2.3 38.6-2.8 6-0.2 10.7-0.4 15-0.4h4.6c3.2 0.1 6.8 0.2 10.7 0.8h0.1c0.9 0.2 2.3 0.4 3.9 0.9h0.1c0.4 0.2 1 0.4 1.7 0.7 0.5 0.3 0.9 0.5 1.2 0.7l0.5 0.4 0.4 0.3 1.5 1.5c1.3 1.3 2.5 2.7 3.8 4.4 4 5.2 7.5 11.2 10.7 18.3 1.5 3.3 2.8 6.6 3.8 9.8 1.1 3.5 1.9 6.8 2.5 10l1.2 7.7h-18.2v0.1z" fill="#fff"/>
<path d="M64.3,228.6l4.4-9.5c3.7-7.9,12.6-22.4,22.5-26.5l0.2-0.1c3.3-1.2,36.7-5.1,57.1-5.1c11.4,0,15.7,1.1,17.9,2c10.3,4,28.2,20.9,30.6,30.9l2,8.2H64.3z" fill="#fff"/>
<path d="m185.4 228.6-1.2-5.1c-1.1-4.7-15.2-18.8-22.5-21.7-0.7-0.3-3.6-1.1-13.2-1.1-19.6 0-48 3.5-52.6 4.4-3.8 1.9-10.7 10-15.2 19.6l-1.8 3.8h-16.6l4.2-9.3c4.9-11 14.6-24.6 24.1-28.4 3.7-1.5 37.5-5.3 58-5.3 8.9 0 14.9 0.7 18.6 2.1 10.3 4 29.6 21.4 32 33l1.6 8h-15.4z" fill="#fff"/>
<path d="m193.1 228.6-1.9-1.8c-7.2-6.7-9.2-20.6-7-26.3 1.5-3.8 4.7-5.1 7.1-5.1 0.7 0 1.3 0.1 1.9 0.3 1.3-0.1 4.3-2.6 5.2-4 1.4-2.6 4.1-4.2 7.4-4.2 4.9 0 12.9 3.9 15.5 7.6 1.5 2.1 1.9 4.6 1.1 6.8-0.1 0.2-0.2 0.6-0.4 1.1-2.7 8.1-6.2 18-9 22.6l-1.9 3.1-18-0.1z" fill="#fff"/>
<path d="m192.5 228.6 6.2-10.1c3-4.9 5.1-8.9 6.5-12-3.5 2.5-8.4 4-15.7 4.4l-0.2-0.2-0.1 0.7c-4.3 0-7.8-3.5-8-7.8-0.1-2.1 0.7-4.2 2.1-5.8s3.4-2.5 5.5-2.6c7.2-0.3 8.1-2 9.4-4.5 1.8-3.4 5.7-5.4 10.8-5.4 1.3 0 2.6 0.1 3.8 0.4 6.3 1.4 10.4 6.2 10.7 12.4 0.3 6.3-3.2 15.5-10.2 27.3l-1.9 3.2h-18.9z" fill="#fff"/>
<path d="m218.8 208.9c-8.1 0-16.9-5.3-21.4-10.5-4.1-4.7-4.5-8.9-4.1-11.6 0.5-3.3 3.2-6.6 8.1-6.6 0.9 0 1.8 0.1 2.6 0.2 0.8-3.6 2.7-11.1 10.4-11.1h1.1c3.7 0.4 6.5 2.7 7.6 6.2 1.2-0.6 2.6-1.1 4.2-1.1 2.4 0 4.7 1 6.4 2.8 2.7 2.9 3.3 6.9 1.6 10.7 1.8 1.1 3.2 2.8 3.8 5 0.8 2.8 0.3 5.8-1.5 8.2-3.5 4.9-11.6 7.2-18 7.4-0.4 0.4-0.6 0.4-0.8 0.4" fill="#fff"/>
<path d="m210.8 44.2c-7.3 4.6-15.3 15.1-25.1 29.5-1.5 2.3-4 3.5-6.8 3.5-3.6 0-8.2-2.2-13.5-6.5-8.4-6.8-8.6-10.6-8.7-12.1-0.2-4 2.8-7.4 7-7.8 8.1-0.7 14.8-5.6 21.3-10.3s12.5-9 19.7-9c1.4 0 2.9 0.2 4.3 0.5" fill="#fff"/>
<path d="m164.3 57.5c19.6-1.8 31.1-22.1 43-19-8 5-15.9 15-27 31.4-2.7 3.9-21.4-11.9-16-12.4" fill="#FFF8EE"/>
<path d="m37.3 48.2c4.9-4.5 11.5-6.8 19.6-6.8 7 0 15.3 1.7 24.6 5.1 2.5 0.9 5.8 1.1 8.3 1.1h2 1.7c2.3 0 7.2 0 9.3 4.5 0.7 1.7 1.6 5.2-1.1 9.3-3.3 5.1-12 10.5-20.4 10.5h-0.4c-4.5-0.1-8.7-2.5-13.6-5.2-6.1-3.4-13-7.3-21.2-7.3-1.1 0-2.3 0.1-3.4 0.2" fill="#fff"/>
<path d="m188.1 96.7c-3.6 0-10.4-1.5-14.7-11.7-2.4-5.4-3.2-11.5-3.2-14.9 0-7 3.7-8.9 6-9.4 1.6-1.6 4.6-5.7 6.8-8.8 9.1-12.4 15.7-20.5 23.4-20.5 1.3 0 2.5 0.2 3.7 0.7 10.3 4.1 15.3 12.8 13.6 23.8-1.2 8.1-6.3 17.7-13.8 26.5-3.5 4.1-12.6 13.7-20.7 14.3h-1.1" fill="#fff"/>
<path d="m69.9 100.5c-0.9 0-1.8 0-2.6-0.2-12.8-2.1-28.8-15-34.8-28.3-4.1-9.1-2.3-15.3 0-18.9 3.7-5.9 9.2-9 16-9 8.2 0 16.4 4.5 23.6 8.4 2.8 1.5 6.8 3.7 8.5 4.1 0.6-0.2 1.2-0.3 1.9-0.3 2.6 0 5 1.4 6.4 3.8 3.3 5.8 1.3 21.4-3.9 30.4-3.6 6.6-9 10-15.1 10z" fill="#fff"/>
<path d="m114.5 212.1c-30 0-59.7-14.7-69.6-25.4-10.3-11.1-14-23.7-11.2-37.5 2.4-11.3 8.7-21.4 14.2-30.4 3.8-6.2 7.4-12 8.4-16.2 12.2-53.9 42.8-60.8 68.1-60.8 1.6 0 3.3 0 5.2 0.1 53.9 1.6 59.3 27.6 62.5 43.2 0.6 2.9 1.2 5.6 1.9 7.4 18.1 44.4 21.1 71 10 89-10.9 17.7-34.8 26.4-82.4 30.3-2.3 0.2-4.7 0.3-7.1 0.3z" fill="#fff"/>
<path d="m113.4 212.2c-30.6 0-58.9-15.2-68.4-25.5-10.3-11.1-14-23.7-11.2-37.5 2.4-11.3 8.7-21.4 14.2-30.4 3.8-6.2 7.4-12 8.4-16.2 12.2-53.9 42.8-60.8 68.1-60.8 1.6 0 3.3 0 5.2 0.1 53.9 1.6 59.3 27.6 62.5 43.2 0.6 2.9 1.2 5.6 1.9 7.4 17.8 43.7 20.7 70.1 9.8 88.1-12.5 20.7-41.9 27.4-82.1 31.2-2.8 0.3-5.6 0.4-8.4 0.4" fill="#fff"/>
<path d="m191.3 174.6c0.4-0.9 0.8-1.9 1.2-2.8 4.1-9.8 7.2-18.4 2.3-23.9-5.8-6.4-30.3-18-52.1-28.2-41.7-19.7-67.5-32.4-71.2-45-0.9-3.2-0.5-6.5 1.2-9.3 7.2-11.3 27.3-23.4 54.8-23.4h0.8c25.9 0.2 44.7 7.7 56 22.1 9.6 12.2 11.7 26.5 13.3 36.9 0.5 3.5 1.2 8 1.9 9.2 19.6 33.7 10.6 58.6 3.5 70.3l-11.7-5.9z" fill="#fff"/>
<path d="m170.8 135.8c-10.1 0-27-2.5-32.8-8.1-4.6-4.4-6.3-11.7-8.1-18.8-0.7-3-1.9-7.8-3-10h-0.1c-0.4 1.1-0.9 2.5-1.3 3.6-2.7 7.6-6.5 18.1-14.4 23.8-3.4 2.5-15.7 4.7-25.2 4.7s-16.7-2-21.5-6.1c-6.9-5.8-12.1-16.5-15.6-31.8-0.2-0.1-0.3-0.2-0.5-0.3-1.6-1.1-3.7-2.4-4.8-4.7-1.8-3.6-1.1-10 0.8-13.4 1.4-2.5 3.8-4.1 6.4-4.3h0.9c1.4 0 2.8 0.2 4.4 0.5s3.5 0.6 5.1 0.6h0.9c9.5-1.4 18.4-2 26.5-2 19.7 0 30.1 4 34 5.6 0.3 0.1 0.6 0.2 0.8 0.3 1.1 0.3 3.2 0.7 5.4 0.7 0.8 0 1.6 0 2.3-0.2 8.9-1.4 17.4-2 25.2-2 20.8 0 31.8 4.7 36.6 6.8 0.4 0.2 0.8 0.4 1.1 0.4h0.4c1.3 0 3.2-0.4 4.8-0.7 1.2-0.3 2.4-0.5 3.5-0.7h0.9c3.1 0 5.9 1.8 7.6 4.8 1.9 3.5 3.2 10.8 0.5 15-1.8 2.8-4.7 4.1-7.1 5.2-0.3 0.1-0.7 0.3-1 0.5-0.8 1.4-2.2 4.2-3.4 6.5-3.5 6.8-7.4 14.6-11 18.8-3.2 3.6-9.2 5.3-18.3 5.3" fill="#fff"/>
<defs>
<rect id="bv" x="42.5" y="75" width="169.5" height="59.2"/>
</defs>
<clipPath id="bk">
<use overflow="visible" xlink:href="#bv"/>
</clipPath>
<g clip-path="url(#bk)" opacity=".3">
<g transform="translate(443.98 368.78)">
<path d="m-277.2-234.6c-8 0-19.3-1.2-27.4-6.9-4.6-3.3-6.7-9.9-9.6-20.5-0.8-3-2-7.2-2.9-9.3-0.5 1.2-1.1 2.8-1.6 4.1-3 8.1-7.1 19.1-14.6 23.7-3.9 2.4-16 4.6-25.4 4.6-10.1 0-17.4-2.3-21.6-6.7-10.7-11.2-12.8-21.9-14.1-28.2-0.2-0.9-0.4-2.1-0.6-2.8-6.3-3.3-6.7-8.2-6.6-10.3 0.3-3.9 3.3-6.8 7-6.8 2.5 0 4.1 1.2 5.3 2 0.1 0.1 0.2 0.2 0.4 0.2 0.1 0 0.4 0.1 0.5 0.2 1.6 0.5 6.3 1.8 7.3 7.9 0.2 1.1 1.8 7.5 4.4 14.2 4.1 10.7 7 12.5 7.3 12.6 3.4 1.2 7.4 1.8 11.9 1.8 7.4 0 13.6-1.6 16.1-2.4 1.5-2.3 4.5-8.3 6.6-12.4 6.3-12.5 7.4-14.4 10.1-15.8 1.5-0.8 3.3-1.2 5.6-1.2 3 0 7.3 0.7 9.3 1.6 4.6 2 7 8 12.4 23.5 1 2.8 2.2 6.4 3 8.2 4 1.9 13.1 3.2 22.6 3.2 2.7 0 4.7-0.1 6-0.2 0.9-1.9 2.2-4.6 3.3-6.9 7.6-16.2 8.8-18.1 10.7-19.6 3.3-2.5 9.1-4.2 12.4-4.2 4.4 0 6.8 2.9 7.4 5.7 1.1 5.8-4.6 8-6.5 8.7-0.5 0.2-1.2 0.5-1.7 0.7-0.7 1.2-2 3.8-3 5.9-8.2 16-10.9 20.4-14 22.3-3.8 2.1-13 3.1-20 3.1" fill="#fff"/>
</g>
</g>
<defs>
<rect id="az" x="45" y="70.7" width="33.4" height="16.2"/>
</defs>
<clipPath id="ao">
<use overflow="visible" xlink:href="#az"/>
</clipPath>
<g clip-path="url(#ao)" opacity=".3">
<g transform="translate(285.29 440.12)">
<path d="m-223.9-353.3c-1.2 0-3.5-0.2-8.1-1.7-1.2-0.4-2.3-0.8-3-1.1-1.5-0.6-5.4-2.1-5.4-6.7v-6.7h6.6c0.9 0 1.5 0.2 2 0.3 1.4 0.2 5.9 0.5 7.4 0.6l0.9 0.1c1.2 0 4.9-0.5 6.5-0.7 2-0.3 2.6-0.4 3.4-0.4h5.7l0.9 5.6c0.4 2.8-1.1 6.3-4.8 7.4-0.2 0.1-0.9 0.3-1.5 0.5-3.5 1.3-7 2.5-10 2.6-0.2 0.2-0.4 0.2-0.6 0.2" fill="#fff"/>
</g>
</g>
<defs>
<rect id="ad" x="181" y="79.3" width="25.4" height="17.2"/>
</defs>
<clipPath id="s">
<use overflow="visible" xlink:href="#ad"/>
</clipPath>
<g clip-path="url(#s)" opacity=".3">
<g transform="translate(484.29 425.61)">
<path d="m-290.8-329.2c-2.2 0-4.4-0.9-7.4-3-2.9-2-5.1-4-5.1-7.5v-6.7h6.5c0.9 0 1.8 0.2 2.7 0.6 0.7 0.3 3.4 1.2 4.6 1.5 0.4 0 1.2-0.2 2.8-0.5 0.8-0.2 1.3-0.2 2-0.2h5.7l0.9 5.6c0.4 2.7-0.8 6.1-4.5 7.4l-1.2 0.6c-1.8 0.9-3.9 1.9-6 2.3-0.2-0.1-0.6-0.1-1-0.1" fill="#fff"/>
</g>
</g>
<path d="M171.7,243.3h-24.6V222h24.6V243.3z" fill="#fff"/>
<path d="m182.9 190.1c-0.9-1.2-1.9-2.3-3-3.3l-0.7-0.7s-0.1 0-0.2-0.1c-0.5-0.2-1.2-0.3-1.9-0.4-2.9-0.4-6-0.5-9.1-0.6-6.3-0.1-12.6 0.1-18.9 0.4-12.6 0.6-25.3 1.6-37.8 3-6.3 0.7-12.6 1.5-18.8 2.5-3.1 0.5-6.2 1-9.2 1.7-1.5 0.3-3 0.7-4.4 1.1-0.7 0.2-1.4 0.4-2 0.7-0.3 0.1-0.6 0.2-0.7 0.4 0 0-0.1 0-0.1 0.1-0.7 1-1.4 2-2.1 3.1s-1.2 2.3-1.8 3.5c-1.1 2.4-2.1 4.9-3 7.4s-1.9 5.1-2.8 7.7c-0.5 1.3-1 2.6-1.6 3.9-0.2 0.6-0.5 1.2-0.8 1.8h8.5c4.6-10.3 13.3-22.1 20.5-25 2-0.8 34.2-4.8 55.5-4.8 7.9 0 13.3 0.6 16.3 1.7 8.7 3.4 26.1 19.5 27.9 28.2h4.9c-1-5.5-3-10.9-5.3-16.1-2.6-6-5.7-11.5-9.4-16.2" fill="#BA8449"/>
<path d="m179.1 185.9z" fill="#BA8449"/>
<path d="m179.1 185.9zm17.8 17.9c-2.7-6-5.8-11.7-9.9-16.9-1-1.3-2.1-2.6-3.3-3.8l-1.4-1.4c-0.2-0.1-0.4-0.2-0.5-0.3-0.3-0.2-0.6-0.3-0.9-0.4-1.1-0.4-1.9-0.5-2.8-0.7-3.4-0.5-6.6-0.6-9.8-0.7-6.5-0.1-12.8 0-19.2 0.3-12.8 0.5-25.5 1.5-38.2 2.8-6.3 0.7-12.7 1.4-19.1 2.4-3.2 0.5-6.3 1-9.5 1.7-1.6 0.4-3.2 0.7-4.8 1.2-0.8 0.2-1.6 0.5-2.5 0.9-0.4 0.2-0.9 0.4-1.4 0.7-0.2 0.2-0.5 0.3-0.8 0.5s-0.6 0.5-1 1c-0.9 1.1-1.8 2.4-2.6 3.6s-1.6 2.5-2.3 3.8c-1.4 2.5-2.7 5.1-3.9 7.7-1.1 2.6-2.2 5.2-3.1 7.9-0.5 1.3-0.9 2.6-1.2 4-0.2 0.7-0.4 1.3-0.6 2l-0.3 1-0.1 0.5c0 0.1 0.2 0.2 0.6 0.5h0.1 5.8c0.3-0.6 0.5-1.2 0.8-1.8 0.5-1.3 1.1-2.6 1.6-3.8 1-2.6 1.9-5.1 2.8-7.7 0.9-2.5 1.9-5.1 3-7.4 0.6-1.2 1.2-2.3 1.8-3.5 0.7-1.1 1.3-2.1 2.1-3.1 0 0 0.1 0 0.1-0.1 0.2-0.1 0.5-0.2 0.7-0.4 0.6-0.2 1.3-0.5 2-0.7 1.4-0.4 2.9-0.8 4.4-1.1 3-0.7 6.1-1.2 9.2-1.7 6.2-1 12.5-1.8 18.8-2.5 12.6-1.4 25.2-2.4 37.8-3 6.3-0.3 12.6-0.5 18.9-0.4 3.1 0.1 6.3 0.2 9.1 0.6 0.7 0.1 1.4 0.3 1.9 0.4 0.1 0 0.2 0 0.2 0.1l0.7 0.7c1.1 1.1 2 2.2 3 3.3 3.7 4.7 6.8 10.2 9.4 15.8 2.3 5.2 4.3 10.6 5.3 16.1h5c-0.5-3.1-1.3-6.1-2.2-9-1.2-3.1-2.4-6.1-3.7-9.1" fill="#895B2E"/>
<path d="m164.1 195.7c-2.6-1-7.9-1.6-15.5-1.6-21.4 0-53 4-54.7 4.7-6.5 2.6-14.6 13.6-19.1 23.2h115.9c-1.9-7.5-18-22.9-26.6-26.3" fill="#FFF8EE"/>
<path d="m164.8 193.8c-2.9-1.1-8.4-1.7-16.3-1.7-21.3 0-53.5 4-55.5 4.8-7.3 3-15.9 14.7-20.5 25h2.2c4.5-9.5 12.6-20.5 19.1-23.2 1.7-0.7 33.3-4.7 54.7-4.7 7.6 0 12.9 0.5 15.5 1.6 8.6 3.3 24.7 18.8 26.6 26.3h2c-1.7-8.6-19.1-24.7-27.8-28.1" fill="#E5D0AE"/>
<path d="m204.4 194.7c-1.2 2.5-7.5 8.9-12.8 7.4-2.8-0.8-2.3 14 4.1 19.9h11.6c3.2-5.1 8.2-20.7 8.8-22.3 0.7-1.9-10.5-7.5-11.7-5" fill="#BA8449"/>
<path d="m216.7 198.4c-0.2-3.2-2.1-5.5-5.5-6.3-2.7-0.6-6.3-0.1-7.2 1.6-1.8 3.4-4 7.5-14.9 8.1-0.7 0-1.3 0.7-1.3 1.4s0.7 1.3 1.4 1.3c11.4-0.5 14.7-4.9 17.1-9.4 0.5-0.4 3.2-0.9 5.4 0 1.6 0.7 2.3 1.8 2.4 3.5 0.3 6.2-6.2 17.7-9.7 23.5h3.1c3.9-6.8 9.5-17.3 9.2-23.7" fill="#895B2E"/>
<defs>
<rect id="h" x="193.5" y="196.5" width="23.5" height="27.3"/>
</defs>
<clipPath id="b">
<use overflow="visible" xlink:href="#h"/>
</clipPath>
<g clip-path="url(#b)" opacity=".15">
<g transform="translate(485.34 236)">
<path d="m-291.1-13.7c7.1-1.7 13.4-8.8 13.9-18.9 0.1-1.9-3.8-5.5-3.8-6.5s11.9 0.2 12.5 3c0.5 2.8-7.4 19.7-10.1 22.5-2.6 2.7-16.7 0.9-12.5-0.1" fill="#E3AB5E"/>
</g>
</g>
<path d="m199.8 187.8c-0.9 6.2 11.2 14.7 19.4 14.5 6.8-0.2 14.5-3.4 13.4-7.2-1.1-3.9-7.7 0.7-8.3-2-0.5-2.6 7.7-7.5 4.4-11.1-3.1-3.3-6.7 5.2-10.3 4s0.7-9.5-3.8-10c-5.3-0.5-3.3 11.3-7.3 11.5-2.8 0.3-7.2-1.7-7.5 0.3" fill="#FCD4C3"/>
<path d="m199.8 187.8c-0.9 6.2 11.2 14.7 19.4 14.5 6.8-0.2 14.5-3.4 13.4-7.2-1.1-3.9-7.7 0.7-8.3-2-0.5-2.6 7.7-7.5 4.4-11.1-3.1-3.3-6.7 5.2-10.3 4s0.7-9.5-3.8-10c-5.3-0.5-3.3 11.3-7.3 11.5-2.8 0.3-7.2-1.7-7.5 0.3z" fill="none" stroke="#F8A38F" stroke-miterlimit="10" stroke-width="2"/>
<defs>
<rect id="a" x="203.2" y="182.8" width="7.8" height="6.4"/>
</defs>
<clipPath id="cf">
<use overflow="visible" xlink:href="#a"/>
</clipPath>
<g clip-path="url(#cf)" opacity=".5">
<g transform="translate(498.94 288.04)">
<path d="m-295.7-100.3c1.3 1 6 2.3 6.7 0.6 0.8-1.7 1.4-5.1 0.9-5.6-0.4 1.6-0.9 4.6-2.6 5.3-1.3 0.5-4.1-0.1-5-0.3" fill="#FCD4C3"/>
</g>
</g>
<defs>
<rect id="ce" x="215.9" y="181.2" width="7.7" height="7.2"/>
</defs>
<clipPath id="cd">
<use overflow="visible" xlink:href="#ce"/>
</clipPath>
<g clip-path="url(#cd)" opacity=".5">
<g transform="translate(518.46 298.04)">
<path d="m-302.3-116.9c-0.2 1.1-1.1 6.3 1.6 7 2.3 0.6 4-0.8 5.8-3.7-1 0.9-3.5 3.1-5.4 2.3-1.9-0.9-2.1-2.9-2-5.6" fill="#FCD4C3"/>
</g>
</g>
<defs>
<rect id="cc" x="204.5" y="193" width="15.8" height="8.6"/>
</defs>
<clipPath id="cb">
<use overflow="visible" xlink:href="#cc"/>
</clipPath>
<g clip-path="url(#cb)" opacity=".25">
<g transform="translate(500.88 276.96)">
<path d="m-296.3-81.8c13.6-6.7 16.4 4.2 15.7 6.4-5.4 0.9-14.9-4.7-15.7-6.4" fill="#FCD4C3"/>
</g>
</g>
<defs>
<rect id="ca" x="223" y="190.9" width="5.7" height="5"/>
</defs>
<clipPath id="bz">
<use overflow="visible" xlink:href="#ca"/>
</clipPath>
<g clip-path="url(#bz)" opacity=".5">
<g transform="translate(530.75 283.4)">
<path d="m-306.4-92.5c-2.3 2.6-1.2 4.7 0.3 5 1.9 0.4 4.4-1.6 4-1.6-0.5 0-4.2 1.2-4.9-0.6-0.5-1.4 0.3-2.2 0.6-2.8" fill="#FCD4C3"/>
</g>
</g>
<defs>
<rect id="by" x="66.1" y="182.6" width="128.9" height="36.5"/>
</defs>
<clipPath id="bx">
<use overflow="visible" xlink:href="#by"/>
</clipPath>
<g clip-path="url(#bx)" opacity=".15">
<g transform="translate(296.83 257.17)">
<path d="m-227.8-48.9c43.7 25.1 130.4-0.4 125.8-8.6-6.1-10.9-8.5-17.7-21.9-17.1-13.3 0.7-98.9 7.5-102.4 10.1-3.4 2.7-7.2 12.3-1.5 15.6" fill="#E3AB5E"/>
</g>
</g>
<path d="m164.3 57.5c19.6-1.8 31.1-22.1 43-19-8 5-15.9 15-27 31.4-2.7 3.9-21.4-11.9-16-12.4" fill="#FFF8EE"/>
<path d="m164.3 57.5c19.6-1.8 31.1-22.1 43-19-8 5-15.9 15-27 31.4-2.7 3.9-21.4-11.9-16-12.4z" fill="none" stroke="#E5D0AE" stroke-linecap="round" stroke-linejoin="round" stroke-miterlimit="10" stroke-width="3"/>
<path d="m41.8 53.1c8.8-8.2 24.7-5 37.5-0.4 7.3 2.6 16.8 0.5 17.4 2 1.6 3.5-7.9 10.7-15.7 10.5-7.7-0.1-20.6-14.6-39.2-12.1" fill="#BA8449"/>
<path d="m41.8 53.1c8.8-8.2 24.7-5 37.5-0.4 7.3 2.6 16.8 0.5 17.4 2 1.6 3.5-7.9 10.7-15.7 10.5-7.7-0.1-20.6-14.6-39.2-12.1z" fill="none" stroke="#895B2E" stroke-linecap="round" stroke-linejoin="round" stroke-miterlimit="10" stroke-width="2"/>
<path d="m177.7 67.2c4.5 1.3 21.6-32.2 29.9-28.9 26.4 10.5-8 50.9-18.9 51.8-11 0.8-13.5-23.7-11-22.9" fill="#FCD4C3"/>
<path d="m177.7 67.2c4.5 1.3 21.6-32.2 29.9-28.9 26.4 10.5-8 50.9-18.9 51.8-11 0.8-13.5-23.7-11-22.9z" fill="none" stroke="#F8A38F" stroke-miterlimit="10" stroke-width="2"/>
<path d="m82.3 63.2c-7.3 3.2-33.2-23.9-44.1-6.5-7.2 11.5 14.6 34.7 30.2 37.2s17.7-32.4 13.9-30.7" fill="#FCD4C3"/>
<path d="m82.3 63.2c-7.3 3.2-33.2-23.9-44.1-6.5-7.2 11.5 14.6 34.7 30.2 37.2s17.7-32.4 13.9-30.7z" fill="none" stroke="#F8A38F" stroke-miterlimit="10" stroke-width="2"/>
<defs>
<rect id="bw" x="180.5" y="44.8" width="18" height="44.6"/>
</defs>
<clipPath id="bu">
<use overflow="visible" xlink:href="#bw"/>
</clipPath>
<g clip-path="url(#bu)">
<g transform="translate(491.17 503.5)">
<path d="m-293.1-458.7c-1.4 4.6-13.2 16.5-11.6 26.7 0.6 3.8 4.6 15 6.3 14.6s6-3.1 5.6-2.5-6 4.7-8.1 5.8c-2.1-1.1-11-21.8-9.7-22.9 3.9-3.5 15.8-21.5 17.5-21.7" fill="#FCD4C3"/>
</g>
</g>
<defs>
<rect id="bt" x="38.6" y="51.5" width="44.2" height="31.6"/>
</defs>
<clipPath id="bs">
<use overflow="visible" xlink:href="#bt"/>
</clipPath>
<g clip-path="url(#bs)">
<g transform="translate(250.83 484.5)">
<path d="m-212.3-427.1c8-4.9 22.6-2.8 31.1 5.5 3 3 3.9 13-2.9 19.8-2.7 2.7 16-9.6 16.1-13.2 0-3.6-1.2-4.6-4-5.6-10.3-3.8-21.1-12.6-30.5-12.4-6.1 0.1-8.9 4.3-9.8 5.9" fill="#FCD4C3"/>
</g>
</g>
<defs>
<rect id="br" x="181.1" y="42.2" width="26.2" height="44.2"/>
</defs>
<clipPath id="bq">
<use overflow="visible" xlink:href="#br"/>
</clipPath>
<g clip-path="url(#bq)" opacity=".25">
<g transform="translate(496 507.38)">
<path d="m-294.7-465.2c18.2 10-11.1 25.2-8.9 44.1-3.8-0.4-13.2-18.7-10.9-20.3 3.2-2.2 16.7-24.6 19.8-23.8" fill="#FCD4C3"/>
</g>
</g>
<path d="m60.9 103.6c0.3-1.3 0.5-2.7 0.5-4 0.1-1.4 0.2-2.8 0.5-4.1 0.1-0.7 0.3-1.4 0.6-2s0.5-1.3 0.7-1.9c0.5-1.3 1-2.6 1.6-3.8 2.3-5.1 4.9-9.9 8.1-14.4s6.7-8.7 10.7-12.3c4-3.7 8.7-6.7 13.7-8.7 5-2.1 10.4-3.4 15.8-4 5.4-0.7 10.8-0.8 16.2-0.7s10.8 0.4 16.2 1.1 10.8 1.9 16 3.8c2.6 1 5.1 2.1 7.5 3.5s4.7 3.1 6.8 5.1c2.1 1.9 3.9 4.2 5.4 6.6s2.6 5 3.6 7.7c0.9 2.6 1.6 5.3 2.2 8s1 5.3 1.6 7.8c0.3 1.2 0.7 2.4 1.1 3.6 0.5 1.2 1 2.5 1.4 3.8 0.9 2.5 1.9 5.1 2.8 7.6 3.5 10.2 6.6 20.6 8.5 31.2 0.9 5.3 1.6 10.7 1.7 16.1s-0.4 10.8-1.9 16c-0.4 1.3-0.8 2.6-1.3 3.8s-1.2 2.4-1.6 3.7c-0.2 0.7-0.4 1.3-0.7 1.9s-0.7 1.2-1.1 1.8c-0.7 1.1-1.6 2.3-2.5 3.3-3.5 4.2-8 7.6-12.8 10.2s-10 4.6-15.2 6.1c-5.3 1.5-10.5 2.7-15.9 3.7s-10.7 1.7-16 2.4c-2.7 0.3-5.4 0.6-8.1 0.9l-4 0.4c-1.3 0.1-2.7 0.2-4.1 0.3-11 0.6-22-1-32.5-3.9-5.3-1.5-10.4-3.3-15.4-5.5s-9.9-4.7-14.5-7.7c-2.3-1.5-4.6-3.2-6.7-5.1-0.5-0.5-1.1-1-1.6-1.5s-0.9-1.1-1.4-1.6c-0.9-1.1-1.8-2.2-2.6-3.3-3.1-4.6-5.6-10-6.4-15.6-0.9-5.7-0.1-11.5 1.5-16.8 1.6-5.4 4.1-10.3 6.7-15.1 2.7-4.7 5.6-9.3 8.4-13.8 1.4-2.3 2.7-4.6 3.9-6.9 1.1-3 2.1-5.3 2.6-7.7zm4 0.9c-0.7 2.8-1.9 5.4-3.2 7.9s-2.7 4.8-4.1 7.1c-2.8 4.6-5.7 9.1-8.2 13.7s-4.8 9.4-6.2 14.3-2 10-1.2 15c0.8 4.9 2.9 9.6 5.9 13.7 0.7 1 1.6 2 2.4 3 0.4 0.5 0.9 1 1.3 1.4 0.4 0.5 0.9 0.9 1.3 1.3 1.8 1.7 3.9 3.2 6.1 4.7 4.4 2.8 9 5.3 13.9 7.4 4.8 2.1 9.8 3.9 14.9 5.3s10.2 2.5 15.4 3.2 10.4 0.9 15.6 0.7l3.9-0.3 4-0.4c2.6-0.2 5.3-0.5 8-0.8 5.3-0.5 10.6-1.2 15.8-2.1 5.3-0.9 10.4-1.9 15.5-3.3s10.1-3 14.9-5.1c4.7-2.2 9.3-4.9 13-8.6 0.9-0.9 1.8-1.9 2.6-2.9 0.4-0.5 0.8-1.1 1.2-1.6s0.9-1 1.3-1.6c0.9-1.1 1.3-2.3 1.9-3.5 0.5-1.2 0.9-2.5 1.2-3.8 1.3-5.2 1.6-10.6 1.3-15.9-0.4-5.3-1.3-10.6-2.6-15.8-2.5-10.4-6.2-20.4-10.1-30.3-1-2.5-2-5-3-7.4l-1.6-3.7c-0.5-1.3-1-2.7-1.4-4-0.7-2.7-1.2-5.3-1.8-7.9-0.5-2.6-1.2-5.1-2-7.5-1.7-4.9-4.2-9.3-7.9-12.8-3.6-3.5-8.1-6.2-12.9-8.2s-10-3.3-15.2-4.2-10.5-1.4-15.8-1.7c-5.3-0.2-10.7-0.3-16 0.3s-10.5 1.7-15.4 3.8c-4.9 2-9.4 4.9-13.2 8.5-3.9 3.6-7 8-9.3 12.6-2.4 4.7-4.1 9.7-5.6 14.7-0.4 1.2-0.7 2.5-1 3.8-0.2 0.6-0.3 1.3-0.5 1.9-0.1 0.3-0.1 0.7-0.2 1s-0.2 0.6-0.4 0.9c-0.5 1.2-1.1 2.4-1.7 3.6-0.2 1.1-0.6 2.3-0.9 3.6z" fill="#E5D0AE"/>
<path d="m62.9 104.1c-4.2 18.6-40.9 48-13 78.1 9.5 10.2 40.3 25.9 71.2 23 80.4-7.6 100.7-27 66.8-110.2-5.5-13.5 0.7-44.7-58.4-46.5-24.8-0.7-54.6 2.7-66.6 55.6" fill="#FFF8EE"/>
<path d="m76.8 67.7c2.6-4 6-7.3 9.8-10s8.1-4.7 12.4-6.3c8.8-3.2 18-4.4 27.2-4.7 9.2-0.2 18.5 0.5 27.5 2.8 4.5 1.2 8.9 2.8 13.1 5.1s8.1 5.1 11.4 8.6 6 7.4 8.1 11.7 3.6 8.8 4.7 13.3c1.1 4.6 1.8 9.1 2.4 13.6 0.3 2.3 0.6 4.5 1.1 6.6 0.2 1.1 0.5 2.1 0.8 2.9l0.3 0.6 0.2 0.2 0.2 0.4 0.9 1.5c4.4 8.1 7.7 17 8.9 26.3 0.6 4.6 0.7 9.3 0.2 14-0.5 4.6-1.7 9.2-3.5 13.5-0.9 2.1-1.9 4.2-3.1 6.3-0.3 0.5-0.6 1-0.9 1.5s-0.6 0.9-1 1.5c-0.1 0.1-0.1 0.2-0.2 0.3-0.3-0.2 0.4 0.7-1.6 0-0.5-0.9-0.2-0.7-0.3-0.9 0-0.3 0.1-0.4 0.1-0.6l0.3-0.9 0.5-1.6c1.4-4.3 2.6-8.6 3.1-13.1 0.2-2.2 0.3-4.4 0-6.7-0.3-2.2-0.9-4.3-2-6.1-0.3-0.5-0.6-0.9-1-1.3s-0.7-0.8-1.1-1.2c-0.8-0.8-1.6-1.5-2.5-2.2-1.8-1.4-3.7-2.5-5.7-3.5-4.1-1.8-8.6-2.5-13-2.3-4.5 0.2-8.9 1.1-13.2 2.3-2.2 0.6-4.3 1.3-6.5 2-1.1 0.4-2.2 0.7-3.3 1-0.6 0.2-1.1 0.3-1.8 0.4-0.6 0.1-1.1 0.2-1.7 0.2-4.6 0.5-9.1 0.8-13.8 0.7-4.6-0.1-9.2-0.6-13.8-1.6-4.5-1-9-2.5-13.2-4.4-4.2-2-8.2-4.4-11.8-7.4s-6.8-6.4-9.6-10.1c-5.6-7.5-9.3-16.2-11.1-25.3-0.9-4.6-1.3-9.2-1.1-13.9 0.1-2.3 0.4-4.7 0.9-7 0.6-1.8 1.4-4.1 2.7-6.2zm2 1.3c-1.1 1.8-1.8 3.8-2.3 6-0.5 2.1-0.7 4.3-0.9 6.5-0.2 4.4 0.3 8.9 1.2 13.2 1.9 8.7 5.6 17 11 24 2.7 3.5 5.8 6.7 9.2 9.5s7.2 5.2 11.2 7.1 8.2 3.3 12.6 4.3c4.3 1 8.8 1.6 13.2 1.7 4.5 0.2 8.9 0 13.4-0.5l1.7-0.2c0.5-0.1 1-0.2 1.6-0.3 1.1-0.3 2.1-0.6 3.2-0.9 2.2-0.6 4.4-1.3 6.6-1.8 4.4-1.1 9-1.9 13.7-1.9 4.6 0 9.3 0.8 13.5 2.8 2.1 1 4.1 2.2 5.9 3.6 0.9 0.7 1.8 1.5 2.6 2.3l1.2 1.2c0.4 0.4 0.8 0.9 1.1 1.4 1.3 2 2 4.3 2.3 6.7s0.3 4.7 0.1 7c-0.4 4.6-1.4 9.1-2.7 13.5l-0.5 1.6-0.2 0.8c0 0.1-0.1 0.3 0 0.3-0.1-0.1 0.2 0.2-0.2-0.7-1.9-0.7-1.2 0.2-1.4-0.1 0.2-0.4 0.5-0.9 0.8-1.4s0.5-1 0.8-1.5c1-2 1.9-4 2.7-6.1 3-8.3 3.6-17.4 2.1-26.1-0.7-4.4-2-8.6-3.6-12.7s-3.5-8.1-5.7-12l-0.8-1.4-0.4-0.8c-0.2-0.3-0.3-0.6-0.4-0.9-0.5-1.2-0.8-2.5-1.1-3.6-0.5-2.3-0.9-4.6-1.2-6.8-0.7-4.5-1.3-8.9-2.4-13.2-1-4.3-2.4-8.5-4.3-12.4s-4.2-7.5-7.2-10.7c-5.8-6.3-13.8-10.5-22.3-13s-17.5-3.3-26.5-3.3c-8.9 0-17.9 1.1-26.3 3.9-4.2 1.4-8.2 3.3-11.9 5.8-3.8 2.4-7 5.4-9.4 9.1z" fill="#E5BFA1"/>
<path d="m75.6 67.2c1.5-2.4 3.3-4.3 5.1-6.1 1.9-1.8 3.9-3.3 6-4.7 4.2-2.8 8.7-5 13.4-6.7 9.4-3.3 19.3-4.6 29.1-4.4 9.7 0.3 19.5 1.5 28.9 4.9 4.7 1.7 9.2 3.9 13.3 6.9 4.1 2.9 7.7 6.5 10.7 10.6 2.9 4.1 5.1 8.6 6.8 13.3 1.6 4.7 2.7 9.5 3.5 14.2 0.4 2.4 0.7 4.7 1.1 7.1 0.4 2.3 0.7 4.7 1.1 6.8 0.2 1.1 0.5 2.1 0.9 2.9l0.8 1.6 0.9 1.6c1.1 2.1 2.2 4.3 3.2 6.5 1.9 4.4 3.5 9.1 4.6 13.9 1.1 4.7 1.6 9.6 1.6 14.5-0.1 9.8-2.8 19.5-7.9 27.8-0.4 0.6-1.2 0.9-1.8 0.5s-0.8-1.1-0.6-1.6c1.4-3.6 2.9-7 4-10.5 1.2-3.5 2-7.1 2-10.6s-0.9-6.9-3-9.6c-0.1-0.2-0.3-0.4-0.4-0.5l-0.2-0.2-0.2-0.3-0.9-0.9c-0.6-0.6-1.3-1.2-2-1.7-1.4-1.1-3-2.1-4.5-3.1-6.3-3.9-13-7.3-19.8-10.7-6.8-3.3-13.7-6.5-20.5-9.6-13.8-6.3-27.6-12.6-41.2-19.4-6.8-3.5-13.5-7-20.1-11.2-3.5-2.5-6.7-4.7-9.8-7.5-1.5-1.4-3-3-4.2-5.2-0.6-1.1-1.1-2.4-1.2-4 0-0.8 0-1.6 0.2-2.4 0.1-0.4 0.2-0.8 0.4-1.2 0.1-0.3 0.4-0.9 0.5-1h0.2zm5.6 3.4c-0.2 0.3-0.1 0.2-0.2 0.3 0 0.1 0 0.1-0.1 0.2v0.4c0 0.3 0.2 0.8 0.4 1.4 0.6 1.2 1.7 2.5 2.9 3.6 2.5 2.4 5.4 4.6 8.5 6.6 6.1 4.1 12.7 7.7 19.4 11.3 13.3 7 27 13.5 40.6 20.1 6.8 3.3 13.6 6.7 20.4 10.1 6.8 3.5 13.5 7 20 11.3 1.6 1.1 3.2 2.2 4.7 3.5 0.8 0.6 1.5 1.3 2.3 2 0.4 0.4 0.7 0.7 1.1 1.2l0.2 0.3 0.3 0.3c0.2 0.2 0.3 0.4 0.5 0.6 1.2 1.7 2.1 3.6 2.7 5.6s0.7 4.1 0.7 6.1c-0.1 4-1.2 7.9-2.5 11.6s-2.9 7.1-4.4 10.6l-2.4-1.2c4.7-8 6.9-17.2 6.8-26.4-0.2-9.2-2.6-18.3-6.5-26.7-1-2.1-2-4.2-3.2-6.2l-1.8-3.2c-0.7-1.3-1-2.6-1.3-3.8-0.6-2.5-1-4.8-1.4-7.2s-0.8-4.7-1.2-6.9c-0.9-4.6-2-9-3.6-13.3-1.6-4.2-3.7-8.3-6.3-11.8-2.6-3.6-5.9-6.7-9.5-9.2-3.7-2.5-7.7-4.5-12-5.9-8.6-2.9-17.8-3.9-27-4-4.6 0-9.1 0.2-13.6 1-4.5 0.7-8.9 1.8-13.1 3.3s-8.3 3.4-12 5.8c-1.9 1.2-3.6 2.5-5.2 4s-3.1 3-4.2 4.6z" fill="#895B2E"/>
<path d="m77.8 68.3c-11 17 2.1 82.3 71.2 73.5 7.3-0.9 31.6-13.9 48 4.3 8.9 10-3.1 35.3 0 30 3.5-5.8 16.9-28.2-3.2-62.7-6.4-11.1 4.2-64.4-65-65.1-26.5-0.1-43.7 8.7-51 20" fill="#BA8449"/>
<defs>
<rect id="bp" x="61.7" y="64.6" width="117.3" height="111.9"/>
</defs>
<clipPath id="bo">
<use overflow="visible" xlink:href="#bp"/>
</clipPath>
<g clip-path="url(#bo)" opacity=".15">
<g transform="translate(307.17 461.83)">
<path d="m-231.2-389.4c19.9-12.8 80.1-11.9 99.3 18.8 12.8 20.4-10.6 70.8-19.3 77.2-8.6 6.4-20.6 12-52.2 4.4-26.8-6.4 13.5-31.3-17.9-34.9-28.7-3.3-31.6-51.5-9.9-65.5" fill="#E3AB5E"/>
</g>
</g>
<defs>
<rect id="bn" x="118.5" y="119.2" width="13.1" height="5.5"/>
</defs>
<clipPath id="bm">
<use overflow="visible" xlink:href="#bn"/>
</clipPath>
<g clip-path="url(#bm)" opacity=".25">
<g transform="translate(391 387.17)">
<path d="m-259.4-265.2c0 1.5-2.9 2.8-6.5 2.8s-6.5-1.2-6.5-2.8c0-1.5 2.9-2.8 6.5-2.8 3.6 0.1 6.5 1.3 6.5 2.8" fill="#E3AB5E"/>
</g>
</g>
<path d="m120.1 113.8c1.5-1 9.5-0.7 10.5 0.4 1 1 3.2 5.2 0.7 7-0.9 0.6-0.9-1.9-2.9-1.5-2.4 0.5-1.1 3.6-3 3.6-2.9-0.1-0.1-3.4-2.6-3.8-1.9-0.4-2.3 1.5-3.2 1.3-2.9-0.6-1.6-5.6 0.5-7" fill="#F8A38F"/>
<defs>
<rect id="bl" x="117.9" y="113.2" width="14.5" height="9.9"/>
</defs>
<clipPath id="bj">
<use overflow="visible" xlink:href="#bl"/>
</clipPath>
<g clip-path="url(#bj)">
<g transform="translate(380.22 400.41)">
<path d="m-255.8-287.2c-1.9 0-3.7 0.2-4.3 0.6-2.1 1.4-3.4 6.4-0.6 6.9h0.1c0.7 0 1.1-1.4 2.6-1.4h0.5c2.5 0.4-0.2 3.8 2.6 3.8 1.8 0 0.5-3 3-3.5h0.4c1.4 0 1.6 1.6 2.2 1.6 0.1 0 0.2 0 0.3-0.1 2.6-1.8 0.4-6-0.7-7-0.5-0.5-3.4-0.9-6.1-0.9m0 0.7c3 0 5.3 0.4 5.7 0.7 0.6 0.6 1.8 2.8 1.6 4.4-0.1 0.6-0.3 1.1-0.7 1.4 0-0.1-0.1-0.1-0.2-0.2-0.4-0.5-1-1.3-2.1-1.3-0.2 0-0.4 0-0.5 0.1-1.7 0.4-2 1.7-2.3 2.6-0.2 0.9-0.3 0.9-0.6 0.9-0.8 0-0.8-0.2-0.8-1.1s0-2.3-1.8-2.6h-0.6c-1.1 0-1.8 0.7-2.3 1.1-0.1 0.1-0.3 0.3-0.4 0.3-0.4-0.1-0.8-0.3-1-1.1-0.3-1.4 0.7-3.8 1.8-4.6 0.6-0.4 2-0.6 4.2-0.6" fill="#F8A38F"/>
</g>
</g>
<defs>
<rect id="bi" x="74.1" y="124.9" width="112.9" height="64.1"/>
</defs>
<clipPath id="bh">
<use overflow="visible" xlink:href="#bi"/>
</clipPath>
<g clip-path="url(#bh)" opacity=".25">
<g transform="translate(474.1 359.95)">
<path d="m-287.3-219.9c3 19.2-21 43.3-53.3 48.3-32.3 4.9-56.1-23.9-59.1-43.2-3-19.2 16.8-11.9 49.1-16.8s60.3-7.5 63.3 11.7" fill="#F7E8D0"/>
</g>
</g>
<defs>
<rect id="bg" x="80" y="125.9" width="93.6" height="47.5"/>
</defs>
<clipPath id="bf">
<use overflow="visible" xlink:href="#bg"/>
</clipPath>
<g clip-path="url(#bf)" opacity=".5">
<g transform="translate(347.21 315.98)">
<path d="m-244.7-146.7c-0.9-1.4-1.4-3.1-1.9-4.7l-1.5-4.8c-1-3.2-2.1-6.4-3.6-9.4s-3.4-5.8-5.8-7.9-5.3-3.5-8.4-4.1c-1.1-0.4-1.6-1.5-1.2-2.5s1.4-1.5 2.3-1.3c7.2 1.7 14.7 2.5 22.1 2.6s15-0.3 22.5-1.2 14.9-2.2 22.2-3.9 14.6-3.7 21.7-6.1c1.1-0.4 2.2 0.2 2.5 1.2 0.3 0.8 0 1.6-0.6 2.1-0.2 0.2-0.6 0.5-0.9 0.8s-0.6 0.7-0.9 1c-0.6 0.7-1.2 1.5-1.8 2.3-1.2 1.6-2.3 3.2-3.3 4.9-2.2 3.3-4.2 6.7-6.1 10.2s-3.8 7-5.5 10.5c-0.9 1.8-1.7 3.6-2.4 5.4-0.4 0.9-0.7 1.8-1.1 2.8-0.2 0.5-0.3 0.9-0.4 1.4v0.2c0 0.1 0 0.1-0.1 0.2 0 0.1-0.1 0.2-0.2 0.2-0.1 0.1-0.2 0.2-0.4 0.3-0.2 0.2-0.5 0.3-0.7 0.4-1.9 0.8-3.9 1.2-5.8 1.6s-3.9 0.7-5.9 0.9c-4 0.5-7.9 0.9-11.9 1-4 0.2-8 0.2-11.9-0.2-2-0.2-4-0.5-5.9-1-1-0.3-1.9-0.6-2.8-1.1-0.9-0.4-1.7-1-2.3-1.8m0.1-0.1c0.5 0.8 1.4 1.4 2.3 1.8s1.8 0.7 2.8 1c1.9 0.5 3.9 0.8 5.9 0.9 4 0.3 7.9 0.3 11.9 0.1s7.9-0.7 11.8-1.2c1.9-0.3 3.9-0.6 5.8-1.1s3.9-0.9 5.6-1.7c0.2-0.1 0.4-0.2 0.6-0.4 0.2-0.1 0.3-0.2 0.3-0.3 0.1-0.5 0.2-1 0.4-1.5 0.3-1 0.6-1.9 0.9-2.9 0.7-1.9 1.4-3.7 2.2-5.6 1.6-3.7 3.2-7.3 4.9-10.9s3.5-7.2 5.4-10.7c0.9-1.8 1.9-3.5 3-5.3 0.5-0.9 1.1-1.8 1.7-2.6 0.3-0.4 0.6-0.9 0.9-1.3 0.4-0.4 0.7-0.9 1.2-1.3l1.9 3.4c-7.3 2.5-14.6 4.5-22.1 6.2s-15 3.1-22.6 4-15.3 1.4-23 1.2-15.4-1.1-23-2.9l1.1-4c3.3 2 6.3 3.9 8.6 6.6s3.9 5.8 5.2 9c1.2 3.2 2.2 6.5 3 9.7 0.4 1.6 0.9 3.3 1.3 4.9 0.6 1.9 1.1 3.5 2 4.9" fill="#D8CAB2"/>
</g>
</g>
<defs>
<rect id="be" x="81" y="126.9" width="91.6" height="46.5"/>
</defs>
<clipPath id="bd">
<use overflow="visible" xlink:href="#be"/>
</clipPath>
<g clip-path="url(#bd)" opacity=".5">
<g transform="translate(347.23 315.99)">
<path d="m-244.7-146.7c-0.9-1.4-1.4-3-1.9-4.6s-0.9-3.2-1.4-4.8c-1-3.2-2-6.4-3.5-9.5-1.4-3-3.3-5.8-5.6-8-2.4-2.3-5.3-3.9-8.4-4.6v-0.1c-0.5-0.2-0.8-0.8-0.6-1.3s0.7-0.8 1.2-0.7c7.3 1.7 14.8 2.5 22.4 2.6s15.1-0.3 22.6-1.2 14.9-2.3 22.3-3.9c7.4-1.7 14.7-3.7 21.8-6.1 0.5-0.2 1.1 0.1 1.3 0.6 0.1 0.4 0 0.8-0.3 1.1-0.6 0.5-1.3 1.3-1.9 2s-1.2 1.6-1.8 2.3c-1.1 1.6-2.2 3.3-3.2 5-2.1 3.3-4.1 6.8-6 10.3s-3.7 7-5.3 10.6l-2.4 5.4c-0.4 0.9-0.7 1.8-1 2.8-0.2 0.5-0.3 0.9-0.4 1.4-0.1 0.4-0.4 0.5-0.6 0.7s-0.5 0.3-0.7 0.4c-1.9 0.8-3.9 1.2-5.8 1.6s-3.9 0.7-5.9 1c-3.9 0.5-7.9 0.9-11.9 1.1s-8 0.2-11.9-0.2c-2-0.2-4-0.5-5.9-1-1-0.3-1.9-0.6-2.8-1-1-0.5-1.9-1.1-2.4-1.9m0-0.1c0.5 0.8 1.4 1.4 2.3 1.9 0.9 0.4 1.8 0.7 2.8 1 1.9 0.5 3.9 0.8 5.9 0.9 4 0.4 7.9 0.3 11.9 0.1s7.9-0.6 11.9-1.2c1.9-0.3 3.9-0.6 5.9-1.1 1.9-0.4 3.9-0.9 5.6-1.7 0.2-0.1 0.4-0.2 0.6-0.4 0.2-0.1 0.4-0.3 0.4-0.4 0.1-0.5 0.2-1 0.4-1.5 0.3-1 0.6-1.9 1-2.8 0.7-1.9 1.5-3.7 2.3-5.5 1.6-3.7 3.3-7.2 5.1-10.8s3.6-7.1 5.6-10.6c1-1.8 2-3.5 3.1-5.1 0.5-0.9 1.1-1.7 1.7-2.5s1.2-1.6 2.1-2.4l1 1.8c-7.2 2.5-14.6 4.5-22 6.2s-14.9 3-22.5 4c-7.6 0.9-15.2 1.4-22.9 1.2-7.6-0.2-15.3-1-22.8-2.7l0.5-1.9c3.3 1.3 6.3 3.3 8.6 5.9s4 5.6 5.3 8.7 2.3 6.3 3.2 9.6c0.4 1.6 0.9 3.2 1.4 4.9 0.2 1.4 0.7 3 1.6 4.4" fill="#D8CAB2"/>
</g>
</g>
<path d="m102.6 169.2c5.1 8 46.8 2.5 47.5-0.7 1.8-8.1 16.8-36.7 21.6-40.7-8.6 3-53.3 17.3-89.6 8.6 16.3 5.5 16.5 26.6 20.5 32.8" fill="#333"/>
<defs>
<rect id="bc" x="82" y="127.9" width="89.6" height="45.4"/>
</defs>
<clipPath id="bb">
<use overflow="visible" xlink:href="#bc"/>
</clipPath>
<g clip-path="url(#bb)">
<g transform="translate(451.25,378.25)">
<path d="m-279.7-250.3c-6.7 2.3-34.9 11.4-64.1 11.4-8.6 0-17.2-0.8-25.5-2.7 16.4 5.3 16.6 26.5 20.6 32.7 1.9 3 9.2 4.1 17.5 4.1 13.4 0 29.5-2.8 30-4.8 1.8-8.2 16.7-36.8 21.5-40.7m-5.6 3.9c-6.5 9.8-15.9 28.7-17.8 35.8-2.5 1.4-15.4 3.8-28.1 3.8-10.2 0-14.8-1.7-15.8-3.2s-1.8-4.3-2.6-7.5c-1.7-6.1-4.1-14.5-9.8-20.3 5 0.6 10.2 0.9 15.7 0.9 23.8-0.1 47.1-6.1 58.4-9.5" fill="#333"/>
</g>
</g>
<path d="m119.7 173.4c-8.6 0-14.2-1.2-16.4-3.6-0.2-0.2-0.2-1.4 0.8-3.7 2.4-5.5 9.8-14.9 22.6-15.7 0.9 0 1.7-0.1 2.5-0.1 15 0 24 7.6 24 8.9-0.2 0.4-0.4 1-0.7 1.8-0.8 1.9-2 4.9-3.1 8.1-1.3 1.3-16.3 4.3-29.7 4.3" fill="#FCD4C3"/>
<path d="m129.2 149.8c-0.9 0-1.7 0-2.6 0.1-17.5 1.1-25.6 18.4-23.8 20.5 2.6 2.8 9.3 3.8 16.9 3.8 13.5 0 29.8-3.1 30.3-4.6 1.5-4.5 3.2-8.2 3.9-10 0.6-1.8-9.5-9.9-24.7-9.8m0 1.3c13.4 0 22.4 6.4 23.3 8.3-0.2 0.4-0.4 0.9-0.6 1.5-0.8 1.9-2 4.7-3.1 7.9-2.1 1.2-16.1 3.9-29.1 3.9-8.1 0-13.7-1.2-15.8-3.3-0.1-0.7 0.6-3.5 3.1-7 2.2-3.2 8.6-10.7 19.7-11.3h2.5" fill="#F8A38F"/>
<defs>
<rect id="ba" x="103.1" y="149.4" width="50.2" height="20.7"/>
</defs>
<clipPath id="ay">
<use overflow="visible" xlink:href="#ba"/>
</clipPath>
<g clip-path="url(#ay)">
<g transform="translate(348.08 315.92)">
<path d="m-245-146.6c-1.2 5.4 31.9-21.1 49.7-8.4 3.7-4.9-16-13.2-27.5-11.3-9.7 1.7-19.7 7.9-22.2 19.7" fill="#FCD4C3"/>
</g>
</g>
<path d="m109.8 140.8c1.7 3 4.8 17.6 6.1 17.9s9.5 2.6 10.6 2.1c1.2-0.5 1.1-3.3 2.3-2.5 1 0.7 1.5 2 2.5 1.5 1.8-0.9 7.1-4.2 8-5.6 0.8-1.5 0.7-9.8 0-16.4-3.4 1.6-23.5 3.7-29.5 3" fill="#FFF7E3"/>
<defs>
<rect id="ax" x="109.8" y="137.9" width="30.1" height="23.2"/>
</defs>
<clipPath id="aw">
<use overflow="visible" xlink:href="#ax"/>
</clipPath>
<g clip-path="url(#aw)">
<g transform="translate(402.75,363.25)">
<path d="m-263.4-225.4c-3 1.3-18.7 3.1-26.6 3.1-1.2 0-2.1 0-2.9-0.1 1.7 3 4.8 17.6 6.1 17.9 1.2 0.3 8 2.2 10.1 2.2 0.2 0 0.4 0 0.5-0.1 1-0.4 1.1-2.6 1.9-2.6 0.1 0 0.3 0 0.4 0.2 0.9 0.5 1.3 1.6 2.1 1.6 0.1 0 0.3 0 0.4-0.1 1.8-0.9 7.1-4.2 8-5.6 0.9-1.5 0.7-9.8 0-16.5m-0.5 0.9c0.6 6.8 0.6 14 0 15.2-0.7 1.2-5.5 4.3-7.7 5.4h-0.1c-0.2 0-0.5-0.3-0.7-0.6-0.3-0.3-0.6-0.6-1-0.9-0.3-0.2-0.5-0.3-0.8-0.3-0.9 0-1.2 0.9-1.5 1.6-0.2 0.4-0.4 1-0.7 1.1h-0.3c-1.7 0-6.8-1.4-8.9-1.9-0.4-0.1-0.7-0.2-0.9-0.2-0.6-0.7-1.9-5.4-2.9-8.8-0.9-3.1-1.7-6-2.4-7.7h1.9c7.5 0 21.5-1.6 26-2.9" fill="#FFDC99"/>
</g>
</g>
<defs>
<rect id="av" x="109.9" y="137.5" width="29.7" height="10.3"/>
</defs>
<clipPath id="au">
<use overflow="visible" xlink:href="#av"/>
</clipPath>
<g clip-path="url(#au)">
<g transform="translate(361.75 348.25)">
<path d="m-249.6-200.4c-0.5-5.4 24.4-7.2 27.5-6.7 0-1.3-0.2-2.1-0.2-3.6-4.1 2.1-26.5 4.3-29.5 3.4 0.3 0.6 1.4 3.6 2.2 6.9" fill="#EADCBE"/>
</g>
</g>
<defs>
<rect id="at" x="124" y="143.8" width="5.5" height="14.7"/>
</defs>
<clipPath id="as">
<use overflow="visible" xlink:href="#at"/>
</clipPath>
<g clip-path="url(#as)">
<g transform="translate(380.46 354.37)">
<path d="m-255.9-210.6c0.5 1.2 1 2.3 1.4 3.5l1.2 3.6 2.2 7.2-1.7 0.5-0.8-3.7-0.9-3.7-0.9-3.6c-0.4-1.2-0.7-2.4-1.1-3.5l0.6-0.3z" fill="#FFDC99"/>
</g>
</g>
<defs>
<rect id="ar" x="39.1" y="51.5" width="39.4" height="35.7"/>
</defs>
<clipPath id="aq">
<use overflow="visible" xlink:href="#ar"/>
</clipPath>
<g clip-path="url(#aq)" opacity=".4">
<g transform="translate(253.58 481.92)">
<path d="m-213.2-422.8c13.2 3.4 11.1 26.2 18.9 28 7.9 1.8 18.2-18.8 19.2-23.3-15.2-6.5-22.3-14.1-33.2-11.9-3.6 0.7-8.6 6.2-4.9 7.2" fill="#FCD4C3"/>
</g>
</g>
<defs>
<rect id="ap" x="59.9" y="88.7" width="133.7" height="42.5"/>
</defs>
<clipPath id="an">
<use overflow="visible" xlink:href="#ap"/>
</clipPath>
<g clip-path="url(#an)" opacity=".5">
<g transform="translate(308.67 381.33)">
<path d="m-231.7-255.5c16.6 1.3 30.3 2 35.2-3.1s6.7-27.7 14.7-27.1c6.8 0.5 9.1 29.9 13.5 30.7 4.4 0.9 35.5 9.4 43.3 1.4 7.7-8 11.3-13 9.5-17.8s-47.3-20.3-56.6-21.2-72.1 7-73.7 10.9c-1.6 4-3.3 3.4-3 7.6 0.6 8.1 0.5 17.3 17.1 18.6" fill="#E3AB5E"/>
</g>
</g>
<path d="m123.5 92.4c1.2 0 5.9-0.4 7 0.5 6 4.7 5.8 24 12.1 30 5.6 5.4 36.2 9.3 41.5 3.2s13.1-24.7 14.9-26.1c1.8-1.3 5.8-2.3 7-4.2 1.2-1.8 0.2-10-2.6-9.6s-8.1 2.1-11.4 1.2c-3.3-1-19.4-11.1-59.9-5-3.9 0.6-7.8 0-10.5-0.7s-17.9-9.5-58.6-3.7c-4 0.6-9.6-1.2-11.6-1s-2.6 6.5-1.8 8.1 5 3 5.5 5 4.2 21.6 13.8 29.7c10.2 8.6 36.2 2.6 38.5 1 10.3-7.3 12.6-28.4 16.1-28.4" fill="#333"/>
<defs>
<rect id="am" x="49.1" y="76.1" width="157.3" height="53.1"/>
</defs>
<clipPath id="al">
<use overflow="visible" xlink:href="#am"/>
</clipPath>
<g clip-path="url(#al)">
<g transform="translate(326.04 456.22)">
<path d="m-237.6-380.1c-7.1 0-15.6 0.5-25.6 2-0.6 0.1-1.2 0.1-1.8 0.1-3.5 0-7.6-1.1-9.5-1.1h-0.3c-2 0.2-2.6 6.5-1.8 8.1 0.8 1.7 5 3 5.5 5s4.2 21.6 13.8 29.7c4 3.4 10.6 4.5 17.2 4.5 10 0 19.9-2.5 21.3-3.5 10.4-7.4 12.8-28.5 16.3-28.5 0.5 0 1.8-0.1 3-0.1 1.6 0 3.3 0.1 3.9 0.5 6 4.7 5.8 24 12.1 30 3.6 3.4 17.4 6.3 28.2 6.3 6.1 0 11.3-0.9 13.2-3.1 5.3-6.1 13.1-24.7 14.9-26.1s5.8-2.3 7-4.2c1.1-1.8 0.2-9.6-2.5-9.6h-0.2c-2.2 0.3-6 1.4-9.1 1.4-0.8 0-1.6-0.1-2.3-0.3-2.6-0.8-12.7-6.9-35.7-6.9-6.9 0-14.9 0.5-24.2 1.9-1.1 0.2-2.3 0.2-3.3 0.2-2.7 0-5.2-0.4-7.1-0.9-2-0.2-11.2-5.4-33-5.4m0 2c18.1 0 27.4 3.6 30.8 5 0.7 0.3 1.2 0.5 1.7 0.6 1.8 0.4 4.5 1 7.6 1 1.2 0 2.5-0.1 3.6-0.3 8.5-1.3 16.5-1.9 23.9-1.9 19 0 28.9 4.2 33.2 6.1 0.9 0.4 1.5 0.6 2 0.8 0.9 0.3 1.8 0.4 2.9 0.4 2.2 0 4.6-0.5 6.6-0.9 0.9-0.2 1.8-0.4 2.5-0.5 0.9 1 1.5 5.4 1 6.6-0.4 0.6-2.1 1.4-3.3 1.9s-2.3 1-3.1 1.6c-1.1 0.8-2.2 2.9-5.4 9.3-3.1 6.1-6.9 13.7-9.8 17-1 1.2-4.6 2.4-11.8 2.4-10.5 0-23.9-2.8-26.9-5.7-2.8-2.6-4.2-8.7-5.6-14.6-1.6-6.6-3.1-12.8-6.6-15.6-0.9-0.7-2.3-1-5.1-1h-2.2-0.9c-2.8 0-4 3.3-6.1 9.3-2.3 6.6-5.6 15.5-11.3 19.6-1.3 0.8-10.7 3.2-20.2 3.2-7.3 0-12.8-1.4-15.9-4-3.8-3.2-9.1-10.7-12.9-27.8-0.1-0.4-0.2-0.7-0.2-0.9-0.5-1.9-2.3-3-3.8-4-0.6-0.4-1.6-1.1-1.8-1.4-0.4-0.9 0-4.2 0.6-5.3 0.7 0 1.7 0.2 2.8 0.4 1.9 0.3 4.3 0.7 6.5 0.7 0.7 0 1.5 0 2.1-0.2 8.9-1.1 17.4-1.8 25.1-1.8" fill="#1A1A1A"/>
</g>
</g>
<defs>
<rect id="ak" x="64.4" y="83.4" width="50.5" height="34.2"/>
</defs>
<clipPath id="aj">
<use overflow="visible" xlink:href="#ak"/>
</clipPath>
<g clip-path="url(#aj)" opacity=".5">
<g transform="translate(292.5,434.75)">
<path d="m-226.3-344.3c-0.9 1.2-1.5 18.9 6 23.7 4.9 3.2 25.7 2.5 29.9 0.2 6.5-3.7 12.9-20.5 11.1-22.9-3-4-24.6-9.3-40.8-5.1-2 0.4-5.1 2.6-6.2 4.1z" fill="none" stroke="#333" stroke-miterlimit="10" stroke-width="4"/>
</g>
</g>
<path d="m66.2 90.4c-0.9 1.2-1.5 18.9 6 23.7 4.9 3.2 25.7 2.5 29.9 0.2 6.5-3.7 12.9-20.5 11.1-22.9-3-4-24.6-9.3-40.8-5.1-2 0.5-5.1 2.6-6.2 4.1" fill="#fff"/>
<defs>
<rect id="ai" x="139.8" y="88.1" width="50.1" height="35"/>
</defs>
<clipPath id="ah">
<use overflow="visible" xlink:href="#ai"/>
</clipPath>
<g clip-path="url(#ah)" opacity=".5">
<g transform="translate(476.59 423.06)">
<path d="m-288.2-324.9c0.8 1.3-1 18.9-9 22.8-5.3 2.5-25.8-0.9-29.6-3.7-6-4.5-10.2-22-8.1-24.2 3.5-3.6 25.6-6 41.1 0.2 1.9 0.7 4.7 3.3 5.6 4.9z" fill="none" stroke="#333" stroke-miterlimit="10" stroke-width="4"/>
</g>
</g>
<path d="m188.4 98.2c0.8 1.3-1 18.9-9 22.8-5.3 2.5-25.8-0.9-29.6-3.7-6-4.5-10.2-22-8.1-24.2 3.5-3.6 25.6-6 41.1 0.2 1.9 0.7 4.6 3.2 5.6 4.9" fill="#fff"/>
<path d="m89.9 101.2c-0.5 3.9-2.5 6.8-4.4 6.5s-2.9-3.6-2.4-7.5 2.5-6.8 4.4-6.5 2.9 3.6 2.4 7.5"/>
<path d="m169.6 105.6c0.4 3.9-0.8 7.2-2.6 7.4-1.9 0.2-3.7-2.8-4.1-6.7s0.8-7.2 2.6-7.4c1.8-0.1 3.6 2.9 4.1 6.7"/>
<defs>
<rect id="ag" x="49.1" y="81.6" width="156.3" height="46"/>
</defs>
<clipPath id="af">
<use overflow="visible" xlink:href="#ag"/>
</clipPath>
<g clip-path="url(#af)" opacity=".3">
<g transform="translate(270.38 446.25)">
<path d="m-218.9-363.5c2.3 1.5 4.4 0.6 4.9 3.6s7.4 29 16 32c14.1 4.9 31.9 0.1 34.3-1.4s13.7-26.8 15.6-27.8 7.9 0.1 9.2 0.7c3.9 1.7 11.1 29.1 13 30.5 8.7 6.1 36.6 5.6 37.9 4 1.4-1.7 11.8-25.6 13.7-27 2.7-2.1 9-3.5 9.2-2.6s-5.1 1.8-6.7 3.7c-1.6 2-12.1 24.9-15.4 26.9s-27.7 5.3-40.1-3.4c-5.9-4.2-8.2-29.1-12.9-30.5-3-0.9-5.3-0.8-7.5-0.2-2.9 1.9-7 23.1-15.7 28.4-3.5 2.1-30.6 7.4-38.7-1.1-15.1-15.8-10.5-29.9-15.4-31.9-3.3-1.4-4-3.2-4-4.4 0.3-1.3 1.4-0.3 2.6 0.5" fill="#333"/>
</g>
</g>
<defs>
<rect id="ae" x="51.6" y="77.2" width="20.2" height="3"/>
</defs>
<clipPath id="ac">
<use overflow="visible" xlink:href="#ae"/>
</clipPath>
<g clip-path="url(#ac)" opacity=".3">
<g transform="translate(270.75,454.25)">
<path d="m-219-376.8c-1.6-0.6 6.8 2.9 9.9 2.7s8.3-2.4 10-2.9c1.5-0.5-7.8 1.2-10.1 1.1s-8.9-0.6-9.8-0.9" fill="#333"/>
</g>
</g>
<defs>
<rect id="ab" x="116.6" y="82.1" width="21.7" height="5.3"/>
</defs>
<clipPath id="aa">
<use overflow="visible" xlink:href="#ab"/>
</clipPath>
<g clip-path="url(#aa)" opacity=".3">
<g transform="translate(368.5,447.25)">
<path d="m-251.9-365.1c2.9 1.3 4.2 4.6 7 4.9s6.2 0.8 7.8-0.1 5.6-3 6.7-3.2c1.2-0.2-8.7 1.3-12.4 1-3.7-0.4-8-2.5-9.1-2.6" fill="#333"/>
</g>
</g>
<defs>
<rect id="z" x="187.4" y="86" width="12.3" height="3.9"/>
</defs>
<clipPath id="y">
<use overflow="visible" xlink:href="#z"/>
</clipPath>
<g clip-path="url(#y)" opacity=".3">
<g transform="translate(475.38 441.38)">
<path d="m-287.8-355.4c-1.2-0.5 4.4 4 6.1 3.8s4.7-2.1 6-2.6c1-0.4-4 1-5.5 0.7-1.5-0.1-5.4-1.4-6.6-1.9" fill="#333"/>
</g>
</g>
<defs>
<rect id="x" x="62.3" y="82.8" width="28.9" height="28.6"/>
</defs>
<clipPath id="w">
<use overflow="visible" xlink:href="#x"/>
</clipPath>
<g clip-path="url(#w)" opacity=".3">
<g transform="translate(287.75 438.62)">
<path d="m-224.7-350.8c7.4-7.3 25-4.8 28.2-4.2-21.1 1.5-21.5 3.1-25.2 6.8-0.5 2.9-1.2 12.5 2.1 20.9-3.7-2-7.6-21-5.1-23.5" fill="#333"/>
</g>
</g>
<defs>
<rect id="v" x="165.1" y="87.8" width="27.8" height="30.5"/>
</defs>
<clipPath id="u">
<use overflow="visible" xlink:href="#v"/>
</clipPath>
<g clip-path="url(#u)" opacity=".3">
<g transform="translate(482.66 426.8)">
<path d="m-290.2-331.1c-6.4-8.2-24.1-8.1-27.4-7.8 20.7 4.3 20.9 5.9 24.1 10.1 0.2 2.9-0.4 12.5-4.7 20.4 3.8-1.6 10.1-20 8-22.7" fill="#333"/>
</g>
</g>
<defs>
<rect id="t" x="65.8" y="84.8" width="47.8" height="27.5"/>
</defs>
<clipPath id="r">
<use overflow="visible" xlink:href="#t"/>
</clipPath>
<g clip-path="url(#r)">
<g transform="translate(292.81 416.38)">
<path d="m-226.4-313.8c0.7-8.6 1.5-15.6 18.6-16.1 13.7-0.4 24.6 2.8 26.1 6.1 1 2.1 0.2 11.3-6.6 19.7 4.4-3.9 11.4-19.4 8.4-21.3-11.1-7.1-33.2-7.3-41.4-4.4-1.5 0.5-3.9 2.2-5.5 4-0.3 2.2-0.3 10.8 0.4 12" fill="#D0DDDC"/>
</g>
</g>
<defs>
<rect id="q" x="66.8" y="103" width="35.2" height="13.9"/>
</defs>
<clipPath id="p">
<use overflow="visible" xlink:href="#q"/>
</clipPath>
<g clip-path="url(#p)">
<g transform="translate(293.58 415.5)">
<path d="m-226.7-312.3c2.6 16.8 33.3 11.7 35.1 11-0.1 0.9-16.1 5.4-29.5 0.2-5.4-2-5.8-13.1-5.6-11.2" fill="#D0DDDC"/>
</g>
</g>
<defs>
<rect id="o" x="141.2" y="89.5" width="47.7" height="25.5"/>
</defs>
<clipPath id="n">
<use overflow="visible" xlink:href="#o"/>
</clipPath>
<g clip-path="url(#n)">
<g transform="translate(474.46 405.09)">
<path d="m-287.5-295c0.4-8.7 0.4-15.6-16.4-18.2-13.5-2.1-24.7-0.3-26.7 2.8-1.2 1.9-1.6 11.2 4.2 20.4-3.9-4.5-9-20.6-5.7-22.2 11.9-5.7 33.9-3.2 41.6 0.7 1.4 0.7 3.7 2.6 5 4.7-0.1 2.1-1.1 10.7-2 11.8" fill="#D0DDDC"/>
</g>
</g>
<defs>
<rect id="m" x="150.2" y="110.4" width="36.3" height="11.7"/>
</defs>
<clipPath id="l">
<use overflow="visible" xlink:href="#m"/>
</clipPath>
<g clip-path="url(#l)">
<g transform="translate(473.58 404.31)">
<path d="m-287.2-293.7c-4.6 16.3-34.5 7.5-36.2 6.6 0 0.9 15.3 7.3 29.3 3.9 5.6-1.4 7.5-12.4 6.9-10.5" fill="#D0DDDC"/>
</g>
</g>
<defs>
<rect id="k" x="87.3" y="95.2" width="2" height="2"/>
</defs>
<clipPath id="j">
<use overflow="visible" xlink:href="#k"/>
</clipPath>
<g clip-path="url(#j)" opacity=".25">
<g transform="translate(327.38 426)">
<path d="m-238-329.8c0-0.5-0.4-1-1-1s-1 0.4-1 1 0.4 1 1 1 1-0.4 1-1" fill="#fff"/>
</g>
</g>
<defs>
<rect id="i" x="166.3" y="99.9" width="2" height="2"/>
</defs>
<clipPath id="g">
<use overflow="visible" xlink:href="#i"/>
</clipPath>
<g clip-path="url(#g)" opacity=".25">
<g transform="translate(446.38 419)">
<path d="m-278-318.1c0-0.5-0.4-1-1-1-0.5 0-1 0.4-1 1s0.4 1 1 1c0.5 0 1-0.5 1-1" fill="#fff"/>
</g>
</g>
<defs>
<rect id="f" x="52" y="79.1" width="64.8" height="9.5"/>
</defs>
<clipPath id="e">
<use overflow="visible" xlink:href="#f"/>
</clipPath>
<g clip-path="url(#e)" opacity=".1">
<g transform="translate(271.12 447.88)">
<path d="m-219.1-366.2c2.4 2.7 3.9 3 7.1 2.6 31.1-4 48.3-3.9 56.8 4 1.8 1.7 0.8-5.1-2.6-6-26.2-6.9-45.2-0.7-49.2-0.2-4.1 0.6-7-0.3-12.1-0.4" fill="#D0DDDC"/>
</g>
</g>
<defs>
<rect id="d" x="137.7" y="82.3" width="47.9" height="9.2"/>
</defs>
<clipPath id="c">
<use overflow="visible" xlink:href="#d"/>
</clipPath>
<g clip-path="url(#c)" opacity=".1">
<g transform="translate(400.62 441.88)">
<path d="m-262.6-356.2c-0.7 0.7-0.4 7.9 3 5.2 9.8-7.8 30.3-6 44.6-1.2-2.3-4.5-19-7.6-28.4-7.5-4.5 0.2-17.3 1.5-19.2 3.5" fill="#D0DDDC"/>
</g>
</g>
<path d="m197.2 91.4c0 0.3-1.6 0.5-3.5 0.5s-3.5-0.2-3.5-0.5 1.6-0.5 3.5-0.5c2 0 3.5 0.3 3.5 0.5" fill="#D0DDDC"/>
<path d="m62.4 82.8c0 0.3-1.6 0.3-3.5 0s-3.4-0.8-3.3-1.1 1.6-0.3 3.5 0c1.9 0.2 3.4 0.7 3.3 1.1" fill="#D0DDDC"/>
<g transform="translate(578.44 204.84)">
<path d="m-322.4 38.2c-0.6-6.1-5.1-8.8-9.2-8.8-1.9 0-3.4 0.5-4 0.8l-0.8 0.4-0.7 0.5c-1 0.7-2.7 1.8-4.2 2.3-0.1-1.2 0-2.8 0.2-4.2v-0.2c1.1-10.7-1.1-17-6.7-18.6-0.9-0.3-1.9-0.4-2.9-0.4-3.4 0-6.4 1.6-8.3 3-1.6-2.1-4.4-3.2-7.8-3.2-5.1 0-9.2 2.4-10.7 6.2-0.2 0.4-0.4 1-0.6 1.8-3-6.6-9.1-9.1-14.8-9.1-5.4 0-10.6 2.1-12.5 3.6-0.1 0.1-0.2 0.1-0.3 0.2-5.1 3.6-9.1 8.2-11.9 13.7-1.4-4.7-4.4-9.2-9.7-12.5l-0.1-0.1c-0.2-0.1-0.3-0.2-0.4-0.2 5.3-9.3 9.9-21.7 7.1-33.5-3-12.6-10.4-14.4-14.5-14.4-1.7 0-3.5 0.3-5.3 0.9h-0.1-0.1c-7.8 3.1-11.2 7.7-12 8.8-0.8 1.2-9.3 14.2-11.4 33.2-0.2 2.1-0.5 4.3-0.7 6.5-1.2-1.7-3.2-3.3-6.3-4.2-1-0.3-2-0.4-3-0.4-4.3 0-7.8 2.6-9.7 4.4-1.6-2.4-4.2-3.9-7.1-4h-0.7c-4.6 0-8.2 2-10.9 4.3-1.7-3-4.9-4.9-8.6-4.9h-0.9-0.6c-5.1 0-9.1 2.4-10.7 6.4-0.1 0.3-0.3 0.7-0.4 1.2-4-5-9.1-7.3-16-7.3h-0.7c-4.3 0.1-14.9 1.9-21.5 16.6-1 2.3-1.8 4.6-2.4 6.8-1.4-0.7-2.8-0.8-3.7-0.8-3.4 0-6 1.9-7.2 3.8-1 1.5-4.2 6.7-2.6 11.9 0.9 2.8 2.8 4.9 5.6 6 2.5 1 5.6 1.9 7.9 2.6 1.4 3.3 4 7 8.6 10.5 3.2 2.5 7.4 3.7 12.2 3.7 8.2 0 16.1-3.5 16.9-3.9l0.3-0.2 0.1-0.1c1.6 1.6 3.6 2.8 6.2 3.3 0.8 0.2 1.8 0.3 3 0.3 4.4 0 7.5-2.3 10.4-6.5 2.3 3.7 6.6 5.7 11.6 5.7 0.3 0 0.5 0.2 0.9 0.2 2.6 0 6-0.9 8.7-5.4 2.3 4.1 6.5 6.5 11.5 6.5 4.4 0 8.3-1.8 9-2.2l0.2-0.1c1.5-0.8 2.7-1.5 3.7-2 3.3 1.8 8.3 3.7 14.5 3.7 1.1 0 2.1 0 3.2-0.2h0.3 0.3c13-2.6 21.5-5.7 26.6-8.1 3.5 4 9.2 7.8 17.2 8.4 0.9 0.1 1.8 0.1 2.7 0.1 6.6 0 11.9-1.9 15.8-3.9 1.2 1.3 2.8 2.5 4.8 3.3 1.2 0.5 2.5 0.7 3.7 0.7 8.1 0 11.9-9.6 12.9-12.9l1.9-5.2c1.7 1.8 3.9 3.3 6.7 4.1 1.5 0.4 3.2 0.7 4.8 0.7 8.9 0 17.5-6.3 18.8-7.4 2.3-2.3 4.9-6.5 4.4-12.2" fill="#fff"/>
</g>
<g transform="translate(455.45 200.81)">
<path d="m-281.1 44.9s-1.1-4 3.1-11.6 7.4-3.5 7.4-3.5 3.6 3.9-0.5 9.7-10 5.4-10 5.4m-32.1 5.5c-4.8 12.5-16.4 7.4-16.4 7.4s-1.3-4.5 2.5-17 12.6-7.6 12.6-7.6 6.1 4.7 1.3 17.2m-8.7-52.5s7.2-18.9 9-9.7-15.2 36.5-15.2 36.5c0.2-6.1 6.2-26.8 6.2-26.8m-103.5 47c0.3-12.1 8.2-17.4 11-14.8s1.8 8.4-3.5 11.9c-5.1 3.6-7.5 2.9-7.5 2.9m219.3-2c-0.4-4.1-4.1-2.6-4.1-2.6s-5.9 4.6-11.1 4.1-3.5-12.1-3.5-12.1 1.1-10.7-1.9-11.6c-3.1-0.9-6.8 2.8-6.8 2.8s-4.7 5.2-6.9 11.8l-0.6 0.2s0.7-11.6-0.1-14.3c-0.6-1.3-6.2-1.2-7.1 1.1s-5.4 18.6-5.7 25.5c0 0-8.8 7.4-16.4 8.7-7.7 1.2-9.5-3.6-9.5-3.6s20.8-5.8 20.1-22.4-16.8-10.5-18.6-9.1c-1.8 1.3-11.1 7-13.9 22.6-0.1 0.5-0.3 2.9-0.3 2.9s-8.1 5.4-12.5 6.8c0 0 12.5-21.1-2.8-30.7-6.9-4.2-12.5 4.6-12.5 4.6s20.7-23 16.1-42.5c-2.2-9.3-6.8-10.3-11.1-8.8-6.5 2.6-8.9 6.3-8.9 6.3s-8.4 12.1-10.3 30.2-4.8 39.8-4.8 39.8-4 3.9-7.6 4.1c-3.7 0.2-2-10.9-2-10.9s2.8-16.9 2.6-19.8-0.4-4.4-3.8-5.4c-3.3-1-7 3.3-7 3.3s-9.7 14.7-10.5 16.9l-0.5 0.9-0.5-0.6s6.8-20 0.3-20.3-10.8 7.1-10.8 7.1-7.4 12.5-7.7 13.9l-0.5-0.6s3.1-14.5 2.5-18.1-4-2.8-4-2.8-4.3-0.5-5.4 2.3-5.2 21-5.7 26.8c0 0-10.7 7.7-17.7 7.7-7 0.1-6.3-4.5-6.3-4.5s25.8-8.8 18.8-26.3c-3.2-4.5-6.8-5.9-12-5.8s-11.3 3.3-15.5 12.6c-2 4.5-2.8 8.7-2.8 11.9 0 0-4.8 0.9-7.3-1.1s-3.9 0-3.9 0-4.3 6.1-0.1 7.7 10.6 3.2 10.6 3.2c0.6 2.6 2.3 7 7.4 10.8 7.6 5.8 22.3-0.9 22.3-0.9l6-3.6s0.2 5.4 4.6 6.2 6.2-0.1 13.9-18.6c4.5-9.5 4.8-9 4.8-9l0.5-0.1s-3.5 18.1-2.1 23 7.1 4.4 7.1 4.4 3.2 1.1 5.7-7.9c2.6-9 7.4-18.4 7.4-18.4h0.6s-2.1 18.1 1.1 24c3.3 5.9 11.7 1.8 11.7 1.8s5.9-3.1 6.8-4c0 0 7 5.9 16.9 4.8 22.1-4.4 30-10.3 30-10.3s3.8 9.6 15.6 10.5c13.5 1 20.8-7.5 20.8-7.5s-0.1 5.5 4.6 7.4 7.9-8.3 7.9-8.3l7.9-21.1h0.7s0.4 13.5 8.2 15.7 17.9-5.6 17.9-5.6 2.2-1.1 1.7-5.2" fill="#E24B31"/>
</g>
</svg>
