<?xml version="1.0" encoding="UTF-8"?>
<svg preserveAspectRatio="xMidYMid" version="1.1" viewBox="0 0 256 256" xmlns="http://www.w3.org/2000/svg">
<path d="m0 0h256v256h-256v-256z" fill="#F7DF1E"/>
<path d="m67.312 213.93 19.591-11.856c3.7795 6.7011 7.2176 12.371 15.464 12.371 7.9051 0 12.889-3.0923 12.889-15.12v-81.798h24.057v82.138c0 24.917-14.606 36.259-35.915 36.259-19.245 0-30.416-9.9673-36.087-21.996"/>
<path d="m152.38 211.35 19.588-11.342c5.1566 8.4212 11.858 14.607 23.715 14.607 9.9682 0 16.325-4.9839 16.325-11.858 0-8.2485-6.5296-11.17-17.528-15.98l-6.0127-2.5795c-17.357-7.3878-28.871-16.667-28.871-36.258 0-18.044 13.747-31.792 35.228-31.792 15.294 0 26.292 5.3276 34.196 19.247l-18.731 12.028c-4.1244-7.3886-8.591-10.309-15.464-10.309-7.0457 0-11.514 4.4678-11.514 10.309 0 7.2176 4.4682 10.14 14.778 14.608l6.014 2.5775c20.45 8.7645 31.963 17.699 31.963 37.804 0 21.654-17.012 33.51-39.867 33.51-22.339 0-36.775-10.654-43.819-24.574"/>
</svg>
