<?xml version="1.0" encoding="UTF-8"?>
<svg preserveAspectRatio="xMidYMid" version="1.1" viewBox="0 0 256 278" xmlns="http://www.w3.org/2000/svg">
<path d="m90.317 59.645c-36.264-6.6049-64.936 0.30802-76.364 20.101-8.5275 14.77-6.0899 34.353 5.9114 55.285 1.0215 1.7817 3.2939 2.3979 5.0756 1.3764 1.7817-1.0215 2.3979-3.2939 1.3764-5.0756-10.811-18.856-12.915-35.757-5.9226-47.867 9.4929-16.442 35.068-22.608 68.591-16.503 2.0205 0.368 3.9567-0.97161 4.3247-2.9921 0.368-2.0205-0.97161-3.9567-2.9921-4.3247zm53.63-33.684c-2.9591 5.7229-8.9325 9.6347-15.82 9.6347-9.8295 0-17.798-7.9684-17.798-17.798 0-9.8295 7.9684-17.798 17.798-17.798 9.8295 0 17.798 7.9684 17.798 17.798 0 0.25713-0.005453 0.51299-0.016249 0.76746 29.461 15.237 49.934 67.197 49.934 127.23 0 24.689-3.4518 48.382-9.8787 68.92-0.61334 1.96-2.6994 3.0517-4.6594 2.4383-1.96-0.61334-3.0517-2.6994-2.4383-4.6594 6.1965-19.802 9.5393-42.746 9.5393-66.699 0-56.524-18.789-105.16-44.458-119.83zm-127.48 167.36c0.43889-0.032407 0.8822-0.048898 1.3294-0.048898 9.8295 0 17.798 7.9684 17.798 17.798 0 9.8295-7.9684 17.798-17.798 17.798-9.8295 0-17.798-7.9684-17.798-17.798 0-6.6914 3.6927-12.52 9.1515-15.56-2.6808-33.264 32.282-77.854 85.119-108.36 21.947-12.671 44.799-21.665 66.268-26.264 2.0082-0.43026 3.9849 0.84888 4.4151 2.857 0.43026 2.0082-0.84888 3.9849-2.857 4.4151-20.691 4.433-42.817 13.141-64.107 25.433-49.759 28.728-82.661 70.135-81.521 99.73zm206.26 26.547c-1.4784-2.5948-2.323-5.5977-2.323-8.7978 0-9.8295 7.9684-17.798 17.798-17.798 9.8295 0 17.798 7.9684 17.798 17.798 0 9.8295-7.9684 17.798-17.798 17.798-3.8735 0-7.458-1.2374-10.38-3.3385-28.392 16.703-82.625 8.1838-133.66-21.282-21.725-12.543-40.775-27.657-55.438-43.771-1.3822-1.519-1.2714-3.8708 0.24759-5.2531 1.519-1.3822 3.8708-1.2714 5.2531 0.24758 14.134 15.532 32.58 30.167 53.656 42.335 48.165 27.808 98.886 36.083 124.85 22.061zm-1.1652-63.915c-1.3269 1.5675-3.6733 1.7626-5.2408 0.43569s-1.7626-3.6733-0.43569-5.2408c21.946-25.926 29.34-51.085 19.867-67.492-6.876-11.91-22.159-18.52-43.362-18.796-2.0536-0.026706-3.6966-1.7131-3.6699-3.7666 0.026707-2.0536 1.7131-3.6966 3.7666-3.6699 23.575 0.3066 41.315 7.98 49.706 22.514 11.404 19.752 3.1131 47.965-20.632 76.016zm-149 65.541c-0.69242-1.9335 0.31366-4.0622 2.2471-4.7546s4.0622 0.31366 4.7546 2.2471c11.476 32.044 29.591 51.081 48.563 51.081 13.645 0 26.911-9.774 37.71-27.739 1.0581-1.7602 3.3428-2.3293 5.103-1.2711 1.7602 1.0581 2.3293 3.3428 1.2711 5.103-12.017 19.99-27.428 31.345-44.085 31.345-22.839 0-43.149-21.344-55.564-56.011zm176-10.424c0-5.722-4.6386-10.361-10.361-10.361-5.722 0-10.361 4.6386-10.361 10.361 0 5.722 4.6386 10.361 10.361 10.361 5.722 0 10.361-4.6386 10.361-10.361zm-230.76 10.361c5.722 0 10.361-4.6386 10.361-10.361 0-5.722-4.6386-10.361-10.361-10.361-5.722 0-10.361 4.6386-10.361 10.361 0 5.722 4.6386 10.361 10.361 10.361zm110.33-193.27c5.722 0 10.361-4.6386 10.361-10.361 0-5.722-4.6386-10.361-10.361-10.361-5.722 0-10.361 4.6386-10.361 10.361 0 5.722 4.6386 10.361 10.361 10.361zm2.7185 130.22c-6.9516 1.502-13.8-2.9159-15.305-9.8675-1.4991-6.9516 2.9159-13.8 9.8675-15.305 6.9516-1.502 13.8 2.9159 15.305 9.8675 1.502 6.9516-2.9159 13.8-9.8675 15.305z" fill="#47848F"/>
</svg>
