<?xml version="1.0" encoding="UTF-8"?>
<svg preserveAspectRatio="xMidYMid" version="1.1" viewBox="0 0 256 289" xmlns="http://www.w3.org/2000/svg">
<path d="m128 288.46c-3.9752 0-7.6853-1.06-11.13-2.9151l-35.246-20.936c-5.3002-2.9151-2.6501-3.9752-1.06-4.5052 7.1553-2.3851 8.4803-2.9151 15.901-7.1553 0.79503-0.53002 1.8551-0.26501 2.6501 0.26501l27.031 16.166c1.06 0.53002 2.3851 0.53002 3.1801 0l105.74-61.217c1.06-0.53002 1.5901-1.5901 1.5901-2.9151v-122.17c0-1.3251-0.53002-2.3851-1.5901-2.9151l-105.74-60.952c-1.06-0.53002-2.3851-0.53002-3.1801 0l-105.74 60.952c-1.06 0.53002-1.5901 1.8551-1.5901 2.9151v122.17c0 1.06 0.53002 2.3851 1.5901 2.9151l28.886 16.696c15.636 7.9503 25.441-1.3251 25.441-10.6v-120.58c0-1.5901 1.3251-3.1801 3.1801-3.1801h13.516c1.5901 0 3.1801 1.3251 3.1801 3.1801v120.58c0 20.936-11.395 33.126-31.271 33.126-6.0952 0-10.865 0-24.381-6.6253l-27.826-15.901c-6.8903-3.9752-11.13-11.395-11.13-19.346v-122.17c0-7.9503 4.2402-15.371 11.13-19.346l105.74-61.217c6.6253-3.7101 15.636-3.7101 22.261 0l105.74 61.217c6.8903 3.9752 11.13 11.395 11.13 19.346v122.17c0 7.9503-4.2402 15.371-11.13 19.346l-105.74 61.217c-3.4451 1.5901-7.4203 2.3851-11.13 2.3851zm32.596-84.008c-46.377 0-55.917-21.201-55.917-39.222 0-1.5901 1.3251-3.1801 3.1801-3.1801h13.781c1.5901 0 2.9151 1.06 2.9151 2.6501 2.1201 14.046 8.2153 20.936 36.306 20.936 22.261 0 31.801-5.0352 31.801-16.961 0-6.8903-2.6501-11.925-37.366-15.371-28.886-2.9151-46.907-9.2754-46.907-32.331 0-21.466 18.021-34.186 48.232-34.186 33.921 0 50.617 11.66 52.737 37.101 0 0.79503-0.26501 1.5901-0.79503 2.3851-0.53002 0.53002-1.3251 1.06-2.1201 1.06h-13.781c-1.3251 0-2.6501-1.06-2.9151-2.3851-3.1801-14.576-11.395-19.346-33.126-19.346-24.381 0-27.296 8.4803-27.296 14.841 0 7.6853 3.4451 10.07 36.306 14.311 32.596 4.2402 47.967 10.335 47.967 33.126-0.26501 23.321-19.346 36.571-53.002 36.571z" fill="#539E43"/>
</svg>
