<?xml version="1.0" encoding="UTF-8"?>
<svg preserveAspectRatio="xMidYMid" version="1.1" viewBox="0 0 256 256" xmlns="http://www.w3.org/2000/svg">
<path d="m237.25 18.752c12.04 12.04 18.291 27.123 18.747 45.247v128c-0.45652 18.12-6.7071 33.207-18.747 45.247-12.04 12.04-27.127 18.291-45.252 18.752h-128c-18.124-0.46079-33.207-6.7114-45.247-18.752-12.04-12.04-18.291-27.127-18.752-45.247v-128c0.46079-18.124 6.7114-33.207 18.752-45.247 12.04-12.04 27.123-18.291 45.247-18.752h128c18.124 0.46079 33.211 6.7114 45.252 18.752zm-17.655 103c-4.0234-4.0021-6.114-9.0238-6.2804-15.065v-42.687c-0.128-6.0415-2.2016-11.072-6.2207-15.091-4.0191-4.0234-9.0537-6.0927-15.095-6.2207h-21.312v106.63l-85.37-106.63h-21.316c-6.0415 0.128-11.072 2.1973-15.091 6.2207-4.0234 4.0191-6.0927 9.0494-6.2207 15.091v42.687c-0.1664 6.0415-2.257 11.063-6.2804 15.065-4.0191 3.9978-9.0494 6.0799-15.091 6.2463 6.0415 0.17066 11.072 2.2528 15.091 6.2506 4.0234 4.0021 6.114 9.0238 6.2804 15.065v42.687c0.128 6.0372 2.1973 11.072 6.2207 15.091 4.0191 4.0191 9.0494 6.0927 15.091 6.2207h21.316v-106.63l85.37 106.63h21.312c6.0415-0.128 11.076-2.2016 15.095-6.2207 4.0191-4.0191 6.0927-9.0537 6.2207-15.091v-42.687c0.1664-6.0415 2.257-11.063 6.2804-15.065 4.0191-3.9978 9.0494-6.0799 15.091-6.2506-6.0415-0.1664-11.072-2.2485-15.091-6.2463z" fill="#3C5AFD"/>
</svg>
