<?xml version="1.0" encoding="UTF-8"?>
<svg preserveAspectRatio="xMidYMid" version="1.1" viewBox="0 0 256 178" xmlns="http://www.w3.org/2000/svg">
<g transform="translate(-1)" fill="none">
<g transform="translate(51.398)">
<path d="m103.2 177.98-102.41-177.37h51.207l102.41 177.37h-51.207z" fill="#FF4081"/>
<path d="m103.2 177.98 25.6-44.344 25.606 44.344h-51.207z" fill="#fff" fill-opacity=".2"/>
<path d="m77.602 133.64 25.6 44.344 25.6-44.344h-51.2-0.0010078z" fill="#fff" fill-opacity=".1"/>
<path d="m52.001 89.292 25.6 44.344 25.6-44.344h-51.2-0.0010078z" fill="#000" fill-opacity=".1"/>
<path d="m52.001 89.292 25.6-44.344 25.6 44.344h-51.2-0.0010078z" fill="#000" fill-opacity=".2"/>
<path d="m26.402 44.948 25.6 44.344 25.6-44.344h-51.2-0.0010078z" fill="#000" fill-opacity=".3"/>
<path d="m26.402 44.948 25.6-44.344 25.6 44.344h-51.2-0.0010078z" fill="#000" fill-opacity=".4"/>
<path d="m0.79516 0.60469 25.607 44.344 25.6-44.344h-51.207z" fill="#000" fill-opacity=".5"/>
</g>
<g transform="translate(0 44.344)">
<path d="m52.194 133.64-51.207-88.687 25.606-44.344 76.806 133.03h-51.207 0.0010078z" fill="#536DFE"/>
<path d="m52.194 133.64 25.606-44.344 25.6 44.344h-51.207z" fill="#fff" fill-opacity=".2"/>
<path d="m26.593 89.292 25.6 44.344 25.606-44.344h-51.207z" fill="#fff" fill-opacity=".1"/>
<path d="m26.593 89.292 25.6-44.344 25.606 44.344h-51.207z"/>
<path d="m0.98665 44.948 25.606 44.344 25.6-44.344h-51.207z" fill="#000" fill-opacity=".1"/>
<path d="m0.98665 44.948 25.606-44.344 25.6 44.344h-51.207z" fill="#000" fill-opacity=".2"/>
</g>
<g transform="translate(26.203)">
<path d="m25.99 89.292-25.6-44.344 25.6-44.344 25.606 44.344-25.606 44.344z" fill="#303F9F"/>
<path d="m51.597 44.948-25.606-44.344-25.6 44.344h51.207z" fill="#000" fill-opacity=".2"/>
</g>
<g transform="translate(179.39 88.688)">
<path d="m26.416 89.292-25.606-44.344 25.606-44.344 25.6 44.344-25.6 44.344z" fill="#3F51B5"/>
<path d="m52.016 44.948-25.6 44.344-25.606-44.344h51.207z" fill="#000" fill-opacity=".2"/>
</g>
<g transform="translate(154.2)">
<path d="m77.212 133.64-76.806-133.03h51.207l51.207 88.688-25.607 44.344h-0.0010078z" fill="#7986CB"/>
<path d="m51.611 89.292 25.6 44.344 25.606-44.344h-51.207z" fill="#fff" fill-opacity=".2"/>
<path d="m51.611 89.292 25.6-44.344 25.606 44.344h-51.207z" fill="#fff" fill-opacity=".1"/>
<path d="m26.005 44.948 25.606-44.344 25.6 44.344h-51.207z" fill="#000" fill-opacity=".1"/>
<path d="m0.40514 0.60469 25.6 44.344 25.606-44.344h-51.207z" fill="#000" fill-opacity=".2"/>
</g>
</g>
</svg>
