<?xml version="1.0" encoding="UTF-8"?>
<svg preserveAspectRatio="xMidYMid" version="1.1" viewBox="0 0 512 309" xmlns="http://www.w3.org/2000/svg">
<path d="m120.81 80.561h96.568v7.6753h-87.716v57.767h82.485v7.6753h-82.485v63.423h88.722v7.6753h-97.574v-144.22zm105.22 0h10.26l45.467 63.423 46.473-63.423 63.211-80.561-103.85 150.65 53.515 74.128h-10.663l-48.686-67.462-48.887 67.462h-10.462l53.917-74.128-50.296-70.088zm118.9 7.6753v-7.6753h110.05v7.6753h-50.698v136.54h-8.8521v-136.54l-50.497-1e-7zm-344.93-7.6753h11.065l152.58 228.32-63.054-84.107-91.337-133.31-0.40237 133.31h-8.8521v-144.22zm454.08 134.22c-1.8085 0-3.1649-1.4013-3.1649-3.2122 0-1.8109 1.3564-3.2122 3.1649-3.2122 1.8301 0 3.1649 1.4013 3.1649 3.2122 0 1.8109-1.3349 3.2122-3.1649 3.2122zm8.6982-8.4509h4.7366c0.06459 2.5654 1.9377 4.2901 4.6936 4.2901 3.0788 0 4.8228-1.854 4.8228-5.3249v-21.989h4.8228v22.011c0 6.2519-3.6171 9.8521-9.6025 9.8521-5.6194 0-9.4733-3.4924-9.4733-8.8389zm25.384-0.28026h4.7797c0.40907 2.9535 3.2941 4.8291 7.4495 4.8291 3.8754 0 6.7174-2.0049 6.7174-4.7644 0-2.3714-1.8085-3.7943-5.9208-4.7644l-4.0046-0.97012c-5.6194-1.3151-8.1815-4.0314-8.1815-8.6018 0-5.5405 4.5213-9.2269 11.303-9.2269 6.3084 0 10.916 3.6865 11.196 8.9251h-4.6936c-0.45213-2.8673-2.9496-4.6566-6.5667-4.6566-3.8108 0-6.3514 1.8325-6.3514 4.635 0 2.2205 1.6363 3.4924 5.684 4.441l3.4233 0.84077c6.3729 1.4875 8.9996 4.0745 8.9996 8.7527 0 5.9501-4.6075 9.6797-11.971 9.6797-6.8897 0-11.519-3.5571-11.863-9.1192z"/>
</svg>
