<?xml version="1.0" encoding="UTF-8"?>
<svg preserveAspectRatio="xMidYMid" version="1.1" viewBox="0 0 256 256" xmlns="http://www.w3.org/2000/svg">
<path d="m128 0c-70.692 0-128 57.307-128 128 0 70.693 57.308 128 128 128 70.693 0 128-57.307 128-128s-57.307-128-128-128zm-100.5 129.33 99.161 99.162c-54.451-0.70972-98.452-44.711-99.161-99.162zm122.99 96.649-120.48-120.48c10.216-44.68 50.206-78.017 97.983-78.017 33.397 0 62.985 16.293 81.263 41.359l-13.917 12.279c-14.826-21.262-39.459-35.177-67.346-35.177-35.505 0-65.74 22.552-77.169 54.113l105.11 105.11c25.525-9.2434 45.157-30.79 51.731-57.477h-43.567v-19.692h45.949v-4.48e-4h18.462v2.24e-4c0 47.778-33.336 87.767-78.017 97.983z" fill="#744C9E"/>
</svg>
